<?xml version="1.0" encoding="utf-8"?>
<!-- Generator: Adobe Illustrator 19.1.0, SVG Export Plug-In . SVG Version: 6.00 Build 0)  -->
<svg version="1.1" id="Layer_1" xmlns="http://www.w3.org/2000/svg" xmlns:xlink="http://www.w3.org/1999/xlink" x="0px" y="0px"
	 viewBox="-387 389 24 24" style="enable-background:new -387 389 24 24;" xml:space="preserve">
<style type="text/css">
	.st0{fill:none;stroke:#000000;stroke-width:0.978;stroke-linejoin:round;stroke-miterlimit:10;}
	.st1{clip-path:url(#SVGID_2_);fill:none;stroke:#3AC6B1;stroke-width:3;stroke-miterlimit:10;}
	.st2{clip-path:url(#SVGID_2_);fill:none;stroke:#3AC6B1;stroke-width:3;stroke-linecap:square;stroke-miterlimit:10;}
	.st3{clip-path:url(#SVGID_2_);fill:none;stroke:#3AC6B1;stroke-width:3;stroke-linejoin:round;stroke-miterlimit:10;}
	
		.st4{clip-path:url(#SVGID_2_);fill:none;stroke:#3AC6B1;stroke-width:3;stroke-linecap:round;stroke-linejoin:round;stroke-miterlimit:10;}
	.st5{clip-path:url(#SVGID_4_);fill:none;stroke:#3AC6B1;stroke-width:3;stroke-miterlimit:10;}
	.st6{clip-path:url(#SVGID_4_);fill:none;stroke:#3AC6B1;stroke-width:3;stroke-linecap:square;stroke-miterlimit:10;}
	.st7{clip-path:url(#SVGID_4_);fill:none;stroke:#3AC6B1;stroke-width:3;stroke-linejoin:round;stroke-miterlimit:10;}
	
		.st8{clip-path:url(#SVGID_4_);fill:none;stroke:#3AC6B1;stroke-width:3;stroke-linecap:round;stroke-linejoin:round;stroke-miterlimit:10;}
</style>
<path class="st0" d="M-364,399.8c0,5.2-4.9,9.4-11,9.4c-1.4,0-2.7-0.2-3.9-0.6l-6.3,3.1l2.5-5.2c-2-1.7-3.3-4.1-3.3-6.7
	c0-5.2,4.9-9.4,11-9.4C-368.9,390.4-364,394.6-364,399.8z"/>
<g>
	<defs>
		<rect id="SVGID_1_" x="-533" y="-884" width="320" height="2574"/>
	</defs>
	<clipPath id="SVGID_2_">
		<use xlink:href="#SVGID_1_"  style="overflow:visible;"/>
	</clipPath>
	<polyline class="st1" points="-400.9,317.3 -400.9,305.6 -343.4,305.6 -343.4,317.7 	"/>
	<line class="st2" x1="-387.9" y1="305.6" x2="-387.9" y2="314.7"/>
	<line class="st2" x1="-360.5" y1="305.6" x2="-360.5" y2="316.2"/>
	<line class="st2" x1="-372.5" y1="305.6" x2="-372.5" y2="311.6"/>
	<path class="st3" d="M-337.3,323.7l0-6.1c-7.6,1.6-12.3-6-12.3-6h0c0,0-3.6,6.2-11,6.2c-7.1,0-11-6.2-11-6.2h0c0,0-3.6,6.2-11,6.2
		c-7.1,0-11-6.2-11-6.2h0c0,0-6.1,7.7-13.5,6.1l0,6H-337.3z"/>
	<path class="st4" d="M-365.8,287.5c-3.1,2-4.7,5.5,0,8.5c2.6,6.1,7.3,4.4,10.1,1.6c2.8-2.8,4.3-10.7,2.2-15
		C-357.9,285.9-361.9,285.1-365.8,287.5z"/>
	<path class="st4" d="M-374.6,279c3.3,3.7,5.1,8.6-2.8,11.8c-3.6,7.7-9.1,4.8-12.7,0.7c-3.6-4.1-5-15-1.8-20.8
		C-386.1,275.5-378.8,274.3-374.6,279z"/>
	<path class="st4" d="M-359.4,291.2c-7.7,3.6-11.5,13.4-11.5,13.4s-3.2-14.2-16-25.2"/>
</g>
<g>
	<defs>
		<rect id="SVGID_3_" x="-533" y="-884" width="320" height="2574"/>
	</defs>
	<clipPath id="SVGID_4_">
		<use xlink:href="#SVGID_3_"  style="overflow:visible;"/>
	</clipPath>
	<polyline class="st5" points="-400.9,317.3 -400.9,305.6 -343.4,305.6 -343.4,317.7 	"/>
	<line class="st6" x1="-387.9" y1="305.6" x2="-387.9" y2="314.7"/>
	<line class="st6" x1="-360.5" y1="305.6" x2="-360.5" y2="316.2"/>
	<line class="st6" x1="-372.5" y1="305.6" x2="-372.5" y2="311.6"/>
	<path class="st7" d="M-337.3,323.7l0-6.1c-7.6,1.6-12.3-6-12.3-6h0c0,0-3.6,6.2-11,6.2c-7.1,0-11-6.2-11-6.2h0c0,0-3.6,6.2-11,6.2
		c-7.1,0-11-6.2-11-6.2h0c0,0-6.1,7.7-13.5,6.1l0,6H-337.3z"/>
	<path class="st8" d="M-365.8,287.5c-3.1,2-4.7,5.5,0,8.5c2.6,6.1,7.3,4.4,10.1,1.6c2.8-2.8,4.3-10.7,2.2-15
		C-357.9,285.9-361.9,285.1-365.8,287.5z"/>
	<path class="st8" d="M-374.6,279c3.3,3.7,5.1,8.6-2.8,11.8c-3.6,7.7-9.1,4.8-12.7,0.7c-3.6-4.1-5-15-1.8-20.8
		C-386.1,275.5-378.8,274.3-374.6,279z"/>
	<path class="st8" d="M-359.4,291.2c-7.7,3.6-11.5,13.4-11.5,13.4s-3.2-14.2-16-25.2"/>
</g>
<path d="M-370.7,402.5l-1.3-1.3c-0.2-0.2-0.6-0.4-0.9-0.4c-0.4,0-0.7,0.1-0.9,0.4l-0.3,0.3c-1.3-1.1-2.6-2.4-3.7-3.7l0.3-0.3
	c0.5-0.5,0.5-1.3,0-1.9l-1.3-1.3c-0.2-0.2-0.6-0.4-0.9-0.4c-0.4,0-0.7,0.1-0.9,0.4l-0.7,0.7c-0.6,0.6-0.7,1.7-0.2,2.4
	c2,3.1,4.7,5.7,7.8,7.8c0.3,0.2,0.7,0.3,1.1,0.3c0.5,0,1-0.2,1.3-0.6l0.7-0.7c0.2-0.2,0.4-0.6,0.4-0.9
	C-370.3,403-370.4,402.7-370.7,402.5z"/>
</svg>
