<?xml version="1.0" encoding="UTF-8" standalone="no"?>
<svg width="74px" height="57px" viewBox="0 0 74 57" version="1.1" xmlns="http://www.w3.org/2000/svg" xmlns:xlink="http://www.w3.org/1999/xlink" xmlns:sketch="http://www.bohemiancoding.com/sketch/ns">
    <!-- Generator: Sketch 3.4.4 (17249) - http://www.bohemiancoding.com/sketch -->
    <title>Chinampa</title>
    <desc>Created with Sketch.</desc>
    <defs></defs>
    <g id="Mobile" stroke="none" stroke-width="1" fill="none" fill-rule="evenodd" sketch:type="MSPage">
        <g id="Conócenos" sketch:type="MSArtboardGroup" transform="translate(-124.000000, -1153.000000)" stroke="#3AC6B1" stroke-width="3">
            <g id="Chinampa" sketch:type="MSLayerGroup" transform="translate(126.000000, 1154.600037)">
                <path d="M6.05946045,46.6573 L6.05946045,35.0230335 L63.6243347,35.0230335 L63.6243347,47.0647249" id="Path-1191" sketch:type="MSShapeGroup"></path>
                <path d="M19.140625,35.0230335 L19.140625,44.054302" id="Line" stroke-linecap="square" sketch:type="MSShapeGroup"></path>
                <path d="M46.484375,35.0230335 L46.484375,45.5595135" id="Line-Copy-2" stroke-linecap="square" sketch:type="MSShapeGroup"></path>
                <path d="M34.453125,35.0230335 L34.453125,41.0438792" id="Line-Copy" stroke-linecap="square" sketch:type="MSShapeGroup"></path>
                <path d="M69.6837952,53.0855706 L69.6989438,47.001506 C62.1094696,48.5699363 57.3982391,41.0438792 57.3982391,41.0438792 L57.3861202,41.0438792 C57.3861202,41.0438792 53.7958899,47.236319 46.415467,47.236319 C39.3440767,47.236319 35.4629923,41.0438792 35.4629923,41.0438792 L35.4539031,41.0438792 C35.4539031,41.0438792 31.860643,47.236319 24.4832499,47.236319 C17.4118596,47.236319 13.5307752,41.0438792 13.5307752,41.0438792 L13.5186563,41.0438792 C13.5186563,41.0438792 7.44707689,48.6963741 0.0212081116,47.1279438 L0,53.0855706 L69.6837952,53.0855706 L69.6837952,53.0855706 Z" id="Stroke-3762" stroke-linejoin="round" sketch:type="MSShapeGroup"></path>
                <path d="M41.2418997,16.9479588 C38.1678397,18.9008378 36.5850449,22.4623451 41.2418997,25.4543513 C43.7958028,31.5297388 48.5441874,29.8956104 51.3548203,27.0778546 C54.1654532,24.2579738 55.634394,16.3933327 53.5582315,12.0859488 C49.0710415,15.3095804 45.070522,14.5169538 41.2418997,16.9479588 L41.2418997,16.9479588 Z" id="Stroke-2851" stroke-linecap="round" stroke-linejoin="round" sketch:type="MSShapeGroup"></path>
                <path d="M32.3579334,8.37335367 C35.6641664,12.0772363 37.4121612,16.9477463 29.529441,20.220253 C25.9240621,27.8830188 20.4367423,25.048263 16.7867146,20.9533795 C13.1389194,16.8606211 11.7414165,5.90409859 14.9561197,0.121961701 C20.8832288,4.89472152 28.2279327,3.74084414 32.3579334,8.37335367 L32.3579334,8.37335367 Z" id="Stroke-2852" stroke-linecap="round" stroke-linejoin="round" sketch:type="MSShapeGroup"></path>
                <path d="M47.6242018,20.5942538 C39.9647249,24.2386363 36.1361027,33.9605313 36.1361027,33.9605313 C36.1361027,33.9605313 32.9102373,19.716627 20.1429541,8.78135451" id="Stroke-2853" stroke-linecap="round" stroke-linejoin="round" sketch:type="MSShapeGroup"></path>
            </g>
        </g>
    </g>
</svg>