<?xml version="1.0" encoding="utf-8"?>
<!-- Generator: Adobe Illustrator 19.1.0, SVG Export Plug-In . SVG Version: 6.00 Build 0)  -->
<svg version="1.1" id="Layer_1" xmlns="http://www.w3.org/2000/svg" xmlns:xlink="http://www.w3.org/1999/xlink" x="0px" y="0px"
	 viewBox="-387 389 24 24" style="enable-background:new -387 389 24 24;" xml:space="preserve">
<style type="text/css">
	.st0{fill:none;stroke:#000000;stroke-linecap:round;stroke-linejoin:round;stroke-miterlimit:10;}
	.st1{fill:none;stroke:#000000;stroke-linejoin:round;stroke-miterlimit:10;}
</style>
<g>
	<path class="st0" d="M-366.5,390v21.5 M-366.3,390c1.4,0,2.8,6.5,2.8,14.5h-3 M-386.5,391v5c0,1.7,1.3,3,3,3c1.7,0,3-1.3,3-3v-5
		 M-383.5,391v20.5"/>
	<circle class="st1" cx="-375" cy="405" r="6.5"/>
</g>
<g>
	<path class="st1" d="M-375,407.9c0,0,2.4-1.9,2.4-3.6c0-1.8-2.1-1.9-2.4-0.1c-0.3-1.8-2.4-1.6-2.4,0.3
		C-377.4,406.3-375,407.9-375,407.9z"/>
</g>
</svg>
