<?xml version="1.0" encoding="utf-8"?>
<!-- Generator: Adobe Illustrator 19.1.0, SVG Export Plug-In . SVG Version: 6.00 Build 0)  -->
<svg version="1.1" id="Layer_1" xmlns="http://www.w3.org/2000/svg" xmlns:xlink="http://www.w3.org/1999/xlink" x="0px" y="0px"
	 viewBox="0 0 20.1 20.1" style="enable-background:new 0 0 20.1 20.1;" xml:space="preserve">
<style type="text/css">
	.st0{fill:none;stroke:#000000;stroke-linejoin:round;stroke-miterlimit:10;}
	.st1{fill:none;stroke:#000000;stroke-linecap:round;stroke-linejoin:round;stroke-miterlimit:10;}
</style>
<g>
	<path class="st0" d="M56.6,62.9c0,2.2-1.8,4-4,4h-15c-2.2,0-4-1.8-4-4v-15c0-2.2,1.8-4,4-4h15c2.2,0,4,1.8,4,4V62.9z"/>
	<line class="st0" x1="33.6" y1="51.9" x2="40.8" y2="51.9"/>
	<line class="st0" x1="49.4" y1="51.9" x2="56.6" y2="51.9"/>
	<circle class="st0" cx="45.1" cy="55.4" r="5.5"/>
	<rect x="51.6" y="46.9" class="st0" width="3" height="3"/>
	<line class="st0" x1="35.6" y1="44.4" x2="35.6" y2="51.9"/>
	<line class="st0" x1="37.6" y1="43.9" x2="37.6" y2="51.9"/>
	<line class="st0" x1="39.6" y1="43.9" x2="39.6" y2="51.9"/>
</g>
<g>
	<path class="st1" d="M89.6,55.2c0.1,6.1-4.9,11.1-11,11.2c-6.1,0.1-10.9-4.7-11-10.8c-0.1-6.1,4.9-11.1,11-11.2
		C84.7,44.3,89.5,49.1,89.6,55.2z"/>
	<line class="st1" x1="78.6" y1="56.9" x2="78.6" y2="49.9"/>
	<path class="st0" d="M79.1,60.4c0,0.3-0.2,0.5-0.5,0.5l0,0c-0.3,0-0.5-0.2-0.5-0.5l0,0c0-0.3,0.2-0.5,0.5-0.5l0,0
		C78.9,59.9,79.1,60.1,79.1,60.4L79.1,60.4z"/>
</g>
<path d="M20.1,2.7c0-1.8-0.9-2.7-2.7-2.7C12.5,0,7.7,0,2.8,0C0.9,0,0,0.9,0,2.8c0,4.9,0,9.8,0,14.6c0,1.9,0.9,2.7,2.8,2.7
	c2.4,0,4.8,0,7.3,0c2.5,0,4.9,0,7.4,0c1.8,0,2.7-0.9,2.7-2.7C20.1,12.5,20.1,7.6,20.1,2.7z M10.1,6c2.2,0,4.1,1.8,4.2,4
	c0,2.3-1.8,4.1-4.1,4.1c-2.3,0-4.2-1.8-4.2-4.1C5.9,7.8,7.8,6,10.1,6z M18.1,16.7c0,1-0.3,1.3-1.4,1.3c-2.2,0-4.5,0-6.7,0
	c-2.2,0-4.4,0-6.6,0C2.3,18,2,17.7,2,16.6c0-2.4,0-4.8,0-7.2c0-0.3-0.1-0.8,0.3-0.9c0.5-0.1,1-0.2,1.5,0C4.1,8.7,4,9,4,9.2
	c-0.2,1.5,0,3,0.9,4.3c1.5,2.2,4.2,3.3,6.9,2.6c2.6-0.7,4.4-2.9,4.6-5.5c0-0.4-0.1-0.8-0.1-1.2c0-0.4-0.3-0.9,0.4-0.9
	c1.1-0.1,1.4,0,1.5,0.8C18.1,11.7,18.1,14.2,18.1,16.7z M15.2,5.6c-0.4-0.1-0.7-0.4-0.7-0.8c0-0.6,0-1.3,0-1.9
	c0-0.5,0.4-0.8,0.9-0.8c0.3,0,0.6,0,0.9,0c0,0,0,0,0,0c0.3,0,0.5,0,0.8,0c0.6,0,1,0.4,1.1,1c0,0,0,0,0,0.1
	C18.4,5.4,17.4,6.2,15.2,5.6z"/>
<path d="M-48.9-0.5C-59.5-0.5-64.1,2-64.1,2v17.4c0,0,2.4,2.4,15.2,2.4s15.2-2.4,15.2-2.4V2C-33.7,2-38.3-0.5-48.9-0.5z M-52.4,16.4
	V4.9l9.8,5.7L-52.4,16.4z"/>
</svg>
