<?xml version="1.0" encoding="utf-8"?>
<!-- Generator: Adobe Illustrator 16.0.0, SVG Export Plug-In . SVG Version: 6.00 Build 0)  -->
<!DOCTYPE svg PUBLIC "-//W3C//DTD SVG 1.1//EN" "http://www.w3.org/Graphics/SVG/1.1/DTD/svg11.dtd">
<svg version="1.1" id="Filled_Icons" xmlns="http://www.w3.org/2000/svg" xmlns:xlink="http://www.w3.org/1999/xlink" x="0px"
	 y="0px" width="24px" height="24px" viewBox="0 0 24 24" enable-background="new 0 0 24 24" xml:space="preserve">
<path d="M11.999,0.68c-6.341,0-11.5,5.117-11.5,11.409c0,2.497,0.814,4.81,2.191,6.69l-1.437,4.238l4.419-1.404
	C7.488,22.805,9.663,23.5,12,23.5c6.34,0,11.499-5.118,11.499-11.41C23.499,5.799,18.341,0.68,11.999,0.68z M16.447,18.378
	c-0.615,0.056-0.615,0.5-4.023-0.831c-3.408-1.332-5.56-4.801-5.728-5.022C5.124,10.449,4.711,8.25,6.5,6.309
	c0.567-0.613,1.976-0.588,2.292,0.168c0.279,0.665,0.95,2.303,1.034,2.469C9.91,9.113,9.967,9.307,9.854,9.528
	c-0.134,0.267-0.273,0.58-0.838,1.138c-0.168,0.166-0.343,0.346-0.146,0.678c0.195,0.334,0.867,1.422,1.864,2.305
	c1.281,1.133,2.361,1.484,2.696,1.65s0.531,0.139,0.727-0.084s0.839-0.971,1.062-1.304c0.224-0.333,0.447-0.277,0.755-0.166
	c0.307,0.11,1.955,0.915,2.291,1.082c0.335,0.165,0.559,0.25,0.643,0.388C19.41,16.055,18.214,18.219,16.447,18.378z"/>
</svg>
