<?xml version="1.0" encoding="utf-8"?>
<!-- Generator: Adobe Illustrator 19.1.0, SVG Export Plug-In . SVG Version: 6.00 Build 0)  -->
<svg version="1.1" id="Layer_1" xmlns="http://www.w3.org/2000/svg" xmlns:xlink="http://www.w3.org/1999/xlink" x="0px" y="0px"
	 viewBox="0 0 70 70" enable-background="new 0 0 70 70" xml:space="preserve">
<g>
	<g id="Background_120_">
		<g>
			<path fill="#4361C3" d="M66.2,10.9H3.8c-1.6,0-2.8,1.3-2.8,2.8v42.5c0,1.6,1.3,2.8,2.8,2.8h62.3c1.6,0,2.8-1.3,2.8-2.8V13.8
				C69,12.2,67.7,10.9,66.2,10.9z"/>
		</g>
	</g>
	<path fill="#F28427" d="M31.3,35.1c0-6.1,4.9-11,11-11c6.1,0,11,4.9,11,11s-4.9,11-11,11C36.3,46.2,31.3,41.2,31.3,35.1L31.3,35.1z
		"/>
	<path fill="#EC2029" d="M35,26.9c0,0-0.6,0.5-1,1h2c0,0,0.7,0.7,0.9,1.3h-3.8c0,0-0.4,0.6-0.6,1.1h5.1c0,0,0.5,0.9,0.6,1.3h-6.2
		c0,0-0.2,0.6-0.3,1l6.8,0c0.2,0.8,0.6,3.3-0.3,6l-6.1,0c0.1,0.3,0.3,0.8,0.4,1.1h5.3c-0.2,0.4-0.5,1-0.7,1.3l-3.9,0
		c0.2,0.3,0.5,0.8,0.7,1l2.4,0c-0.4,0.6-1.2,1.3-1.2,1.3h0l0,0c-2,1.8-4.5,2.8-7.4,2.8c-6.1,0-11-4.9-11-11s4.9-11,11-11
		C30.5,24.1,33,25.2,35,26.9L35,26.9z"/>
	<g id="Glare_120_" opacity="5.098039e-02">
		<g>
			<path fill="#FFFFFF" d="M65.1,10.9H4.9c-2.1,0-3.9,1.8-3.9,4v40.2c0,2.2,1.7,4,3.9,4L69,14.9C69,12.7,67.3,10.9,65.1,10.9z"/>
		</g>
	</g>
</g>
</svg>
