<?xml version="1.0" encoding="utf-8"?>
<!-- Generator: Adobe Illustrator 16.0.0, SVG Export Plug-In . SVG Version: 6.00 Build 0)  -->
<!DOCTYPE svg PUBLIC "-//W3C//DTD SVG 1.1//EN" "http://www.w3.org/Graphics/SVG/1.1/DTD/svg11.dtd">
<svg version="1.1" id="Filled_Icon" xmlns="http://www.w3.org/2000/svg" xmlns:xlink="http://www.w3.org/1999/xlink" x="0px"
	 y="0px" width="24px" height="24px" viewBox="0 0 24 24" enable-background="new 0 0 24 24" xml:space="preserve">
<g>
	<path d="M17.011,7.52c0.127,0,0.255-0.048,0.353-0.145l2.797-2.777C20.55,4.85,21.013,5,21.511,5c1.379,0,2.5-1.122,2.5-2.5
		S22.89,0,21.511,0s-2.5,1.122-2.5,2.5c0,0.519,0.159,1.001,0.431,1.401l-2.783,2.764c-0.195,0.196-0.197,0.512-0.002,0.708
		C16.754,7.471,16.882,7.52,17.011,7.52z M21.511,1c0.827,0,1.5,0.673,1.5,1.5S22.338,4,21.511,4s-1.5-0.673-1.5-1.5
		S20.684,1,21.511,1z"/>
	<path d="M21.521,19c-0.519,0-1.001,0.159-1.4,0.431l-1.793-1.805c-0.193-0.195-0.51-0.198-0.707-0.002
		c-0.195,0.194-0.197,0.511-0.002,0.707l1.806,1.817c-0.253,0.391-0.403,0.854-0.403,1.352c0,1.378,1.121,2.5,2.5,2.5
		s2.5-1.122,2.5-2.5S22.899,19,21.521,19z M21.521,23c-0.827,0-1.5-0.673-1.5-1.5s0.673-1.5,1.5-1.5s1.5,0.673,1.5,1.5
		S22.348,23,21.521,23z"/>
	<path d="M2.511,5c0.498,0,0.961-0.15,1.351-0.402l2.797,2.777C6.756,7.472,6.884,7.52,7.011,7.52c0.129,0,0.257-0.049,0.354-0.147
		C7.561,7.177,7.559,6.86,7.363,6.665L4.58,3.901c0.271-0.4,0.431-0.882,0.431-1.401c0-1.378-1.121-2.5-2.5-2.5s-2.5,1.122-2.5,2.5
		S1.132,5,2.511,5z M2.511,1c0.827,0,1.5,0.673,1.5,1.5S3.338,4,2.511,4s-1.5-0.673-1.5-1.5S1.684,1,2.511,1z"/>
	<path d="M5.694,17.626L3.9,19.431C3.501,19.159,3.019,19,2.5,19C1.121,19,0,20.122,0,21.5S1.121,24,2.5,24S5,22.878,5,21.5
		c0-0.498-0.15-0.96-0.402-1.352l1.806-1.817c0.194-0.196,0.194-0.513-0.002-0.707C6.206,17.43,5.89,17.431,5.694,17.626z M2.5,23
		C1.673,23,1,22.327,1,21.5S1.673,20,2.5,20S4,20.673,4,21.5S3.327,23,2.5,23z"/>
	<path d="M21.511,14c1.379,0,2.5-1.122,2.5-2.5S22.89,9,21.511,9c-1.208,0-2.217,0.86-2.449,2h-2.551c-0.276,0-0.5,0.224-0.5,0.5
		s0.224,0.5,0.5,0.5h2.551C19.294,13.14,20.303,14,21.511,14z M21.511,10c0.827,0,1.5,0.673,1.5,1.5s-0.673,1.5-1.5,1.5
		s-1.5-0.673-1.5-1.5S20.684,10,21.511,10z"/>
	<path d="M7.511,11H4.96C4.728,9.86,3.719,9,2.511,9c-1.379,0-2.5,1.122-2.5,2.5s1.121,2.5,2.5,2.5c1.208,0,2.217-0.86,2.449-2
		h2.551c0.276,0,0.5-0.224,0.5-0.5S7.787,11,7.511,11z M2.511,13c-0.827,0-1.5-0.673-1.5-1.5s0.673-1.5,1.5-1.5s1.5,0.673,1.5,1.5
		S3.338,13,2.511,13z"/>
	<path d="M12.011,9.125c0.655,0,1.188,0.533,1.188,1.188c0,0.276,0.224,0.5,0.5,0.5s0.5-0.224,0.5-0.5
		c0-1.033-0.723-1.897-1.688-2.125V7.5c0-0.276-0.224-0.5-0.5-0.5s-0.5,0.224-0.5,0.5v0.687c-0.965,0.227-1.688,1.091-1.688,2.125
		c0,1.207,0.981,2.188,2.188,2.188c0.655,0,1.188,0.533,1.188,1.187c0,0.655-0.532,1.188-1.188,1.188s-1.188-0.533-1.188-1.188
		c0-0.276-0.224-0.5-0.5-0.5s-0.5,0.224-0.5,0.5c0,1.033,0.723,1.897,1.688,2.125V16.5c0,0.276,0.224,0.5,0.5,0.5s0.5-0.224,0.5-0.5
		v-0.688c0.965-0.228,1.688-1.091,1.688-2.125c0-1.206-0.981-2.187-2.188-2.187c-0.655,0-1.188-0.533-1.188-1.188
		C10.823,9.657,11.355,9.125,12.011,9.125z"/>
</g>
</svg>
