<?xml version="1.0" encoding="utf-8"?>
<!-- Generator: Adobe Illustrator 19.1.0, SVG Export Plug-In . SVG Version: 6.00 Build 0)  -->
<svg version="1.1" id="Layer_1" xmlns="http://www.w3.org/2000/svg" xmlns:xlink="http://www.w3.org/1999/xlink" x="0px" y="0px"
	 viewBox="0 0 70 70" enable-background="new 0 0 70 70" xml:space="preserve">
<g>
	<g id="Background_130_">
		<g>
			<path fill="#F7F6F4" d="M66.2,10.9H3.8c-1.6,0-2.8,1.3-2.8,2.8v42.5c0,1.6,1.3,2.8,2.8,2.8h62.3c1.6,0,2.8-1.3,2.8-2.8V13.8
				C69,12.2,67.7,10.9,66.2,10.9z"/>
		</g>
	</g>
	<g id="Pay_39_">
		<g>
			<path fill="#053385" d="M18.1,30.4c-0.6-0.7-1.6-1.1-3-1.1H11c-0.3,0-0.5,0.2-0.6,0.5L8.8,40.4c0,0.2,0.1,0.4,0.3,0.4h1.9
				c0.3,0,0.5-0.2,0.6-0.5l0.4-2.9c0-0.3,0.3-0.5,0.6-0.5h1.3c2.7,0,4.2-1.3,4.6-3.9C18.8,31.9,18.6,31,18.1,30.4z M15.6,33.2
				c-0.2,1.5-1.3,1.5-2.4,1.5h-0.6l0.4-2.8c0-0.2,0.2-0.3,0.3-0.3h0.3c0.7,0,1.4,0,1.8,0.4C15.6,32.3,15.6,32.7,15.6,33.2z
				 M27.3,33.2h-2c-0.2,0-0.3,0.1-0.3,0.3L24.9,34l-0.1-0.2c-0.4-0.6-1.4-0.8-2.3-0.8c-2.2,0-4,1.7-4.4,4c-0.2,1.2,0.1,2.3,0.7,3
				c0.6,0.7,1.4,1,2.5,1c1.7,0,2.7-1.1,2.7-1.1l-0.1,0.6c0,0.2,0.1,0.4,0.3,0.4H26c0.3,0,0.5-0.2,0.6-0.5l1.1-6.8
				C27.6,33.4,27.5,33.2,27.3,33.2z M24.5,37c-0.2,1.1-1.1,1.9-2.2,1.9c-0.6,0-1-0.2-1.3-0.5c-0.3-0.3-0.4-0.8-0.3-1.4
				c0.2-1.1,1.1-1.9,2.2-1.9c0.6,0,1,0.2,1.3,0.5C24.5,36,24.6,36.5,24.5,37z M37.7,33.2h-2c-0.2,0-0.4,0.1-0.5,0.3l-2.7,4l-1.1-3.9
				c-0.1-0.2-0.3-0.4-0.5-0.4h-1.9c-0.2,0-0.4,0.2-0.3,0.5l2.2,6.4l-2,2.9c-0.2,0.2,0,0.5,0.3,0.5h2c0.2,0,0.4-0.1,0.5-0.2l6.5-9.6
				C38.1,33.5,37.9,33.2,37.7,33.2z"/>
		</g>
	</g>
	<g id="Pal_39_">
		<g>
			<path fill="#199DDB" d="M47.1,30.4c-0.6-0.7-1.6-1.1-3-1.1h-4.1c-0.3,0-0.5,0.2-0.6,0.5l-1.6,10.6c0,0.2,0.1,0.4,0.3,0.4h2.1
				c0.2,0,0.4-0.1,0.4-0.3l0.5-3c0-0.3,0.3-0.5,0.6-0.5H43c2.7,0,4.2-1.3,4.6-3.9C47.8,31.9,47.7,31,47.1,30.4z M44.6,33.2
				c-0.2,1.5-1.3,1.5-2.4,1.5h-0.6l0.4-2.8c0-0.2,0.2-0.3,0.3-0.3h0.3c0.7,0,1.4,0,1.8,0.4C44.7,32.3,44.7,32.7,44.6,33.2z
				 M56.4,33.2h-2c-0.2,0-0.3,0.1-0.3,0.3L54,34l-0.1-0.2c-0.4-0.6-1.4-0.8-2.3-0.8c-2.2,0-4,1.7-4.4,4c-0.2,1.2,0.1,2.3,0.7,3
				c0.6,0.7,1.4,1,2.5,1c1.7,0,2.7-1.1,2.7-1.1L53,40.4c0,0.2,0.1,0.4,0.3,0.4h1.8c0.3,0,0.5-0.2,0.6-0.5l1.1-6.8
				C56.7,33.4,56.6,33.2,56.4,33.2z M53.6,37c-0.2,1.1-1.1,1.9-2.2,1.9c-0.6,0-1-0.2-1.3-0.5c-0.3-0.3-0.4-0.8-0.3-1.4
				c0.2-1.1,1.1-1.9,2.2-1.9c0.6,0,1,0.2,1.3,0.5C53.6,36,53.7,36.5,53.6,37z M60.9,29.3H59c-0.2,0-0.3,0.1-0.3,0.3L57,40.4
				c0,0.2,0.1,0.4,0.3,0.4H59c0.3,0,0.5-0.2,0.6-0.5l1.7-10.6C61.2,29.5,61.1,29.3,60.9,29.3z"/>
		</g>
	</g>
	<g id="Glare_130_" opacity="0.1216">
		<g>
			<path fill="#FFFFFF" d="M65.1,10.9H4.9c-2.1,0-3.9,1.8-3.9,4v40.2c0,2.2,1.7,4,3.9,4L69,14.9C69,12.7,67.3,10.9,65.1,10.9z"/>
		</g>
	</g>
</g>
</svg>
