<?xml version="1.0" encoding="utf-8"?>
<!-- Generator: Adobe Illustrator 16.0.0, SVG Export Plug-In . SVG Version: 6.00 Build 0)  -->
<!DOCTYPE svg PUBLIC "-//W3C//DTD SVG 1.1//EN" "http://www.w3.org/Graphics/SVG/1.1/DTD/svg11.dtd">
<svg version="1.1" id="Filled_Icons" xmlns="http://www.w3.org/2000/svg" xmlns:xlink="http://www.w3.org/1999/xlink" x="0px"
	 y="0px" width="24px" height="24px" viewBox="0 0 24 24" enable-background="new 0 0 24 24" xml:space="preserve">
<path d="M21.999,17.691l-2.453-2.453c-0.484-0.484-1.127-0.751-1.812-0.751s-1.328,0.267-1.813,0.751l-0.657,0.657
	c-2.57-2.126-5.038-4.594-7.159-7.16l0.657-0.657c0.999-0.999,0.999-2.625,0-3.624L6.309,2.001C5.825,1.517,5.181,1.25,4.497,1.25
	c-0.685,0-1.329,0.267-1.813,0.751L1.338,3.347c-1.243,1.242-1.44,3.211-0.47,4.68c3.934,5.947,9.157,11.17,15.105,15.104
	c0.611,0.404,1.321,0.618,2.053,0.618c0.993,0,1.926-0.387,2.626-1.088l1.346-1.346c0.484-0.483,0.751-1.127,0.751-1.812
	S22.483,18.175,21.999,17.691z"/>
</svg>
