<?xml version="1.0" encoding="utf-8"?>
<!-- Generator: Adobe Illustrator 19.1.0, SVG Export Plug-In . SVG Version: 6.00 Build 0)  -->
<svg version="1.1" id="Outline_Icons" xmlns="http://www.w3.org/2000/svg" xmlns:xlink="http://www.w3.org/1999/xlink" x="0px"
	 y="0px" viewBox="-387 389 24 24" style="enable-background:new -387 389 24 24;" xml:space="preserve">
<style type="text/css">
	.st0{fill:none;stroke:#000000;stroke-linecap:round;stroke-linejoin:round;stroke-miterlimit:10;}
</style>
<g>
	<g>
		<path class="st0" d="M-376.5,412.5h-10c0-3.6,1-10,5-10S-376.5,408.9-376.5,412.5z"/>
		<g>
			<g>
				<path d="M-382.5,404c-0.3,0-0.5,0.2-0.5,0.5s0.2,0.5,0.5,0.5s0.5-0.2,0.5-0.5S-382.2,404-382.5,404L-382.5,404z"/>
			</g>
		</g>
		<g>
			<g>
				<path d="M-380.5,404c-0.3,0-0.5,0.2-0.5,0.5s0.2,0.5,0.5,0.5s0.5-0.2,0.5-0.5S-380.2,404-380.5,404L-380.5,404z"/>
			</g>
		</g>
		<path class="st0" d="M-364.5,404.5c0-1-1-2-2-2h-6c-1,0-2,1-2,2v8h10V404.5z"/>
		<rect x="-372.5" y="397.5" class="st0" width="6" height="5"/>
		<path class="st0" d="M-365.5,394.5h-8v2c0,0.5,0.5,1,1,1h6c0.5,0,1-0.5,1-1V394.5z"/>
		<path class="st0" d="M-363.5,393c0-0.8-0.7-1.5-1.5-1.5h-9c-0.8,0-1.5,0.7-1.5,1.5l0,0c0,0.8,0.7,1.5,1.5,1.5h9
			C-364.2,394.5-363.5,393.8-363.5,393L-363.5,393z"/>
		<line class="st0" x1="-369.5" y1="391.5" x2="-369.5" y2="389.5"/>
	</g>
	<line class="st0" x1="-370.5" y1="389.5" x2="-368.5" y2="389.5"/>
</g>
</svg>
