<?xml version="1.0" encoding="utf-8"?>
<!-- Generator: Adobe Illustrator 17.1.0, SVG Export Plug-In . SVG Version: 6.00 Build 0)  -->
<!DOCTYPE svg PUBLIC "-//W3C//DTD SVG 1.1//EN" "http://www.w3.org/Graphics/SVG/1.1/DTD/svg11.dtd">
<svg version="1.1" id="Outline_Icons" xmlns="http://www.w3.org/2000/svg" xmlns:xlink="http://www.w3.org/1999/xlink" x="0px"
	 y="0px" width="24px" height="24px" viewBox="0 0 24 24" enable-background="new 0 0 24 24" xml:space="preserve">
<g>
	<g>
		<path fill="none" stroke="#000000" stroke-linecap="round" stroke-linejoin="round" stroke-miterlimit="10" d="M10.5,23.5h-10
			c0-3.59,1-10,5-10S10.5,19.91,10.5,23.5z"/>
		<g>
			<g>
				<path d="M4.5,15C4.224,15,4,15.224,4,15.5S4.224,16,4.5,16S5,15.776,5,15.5S4.776,15,4.5,15L4.5,15z"/>
			</g>
		</g>
		<g>
			<g>
				<path d="M6.5,15C6.224,15,6,15.224,6,15.5S6.224,16,6.5,16S7,15.776,7,15.5S6.776,15,6.5,15L6.5,15z"/>
			</g>
		</g>
		<path fill="none" stroke="#000000" stroke-linecap="round" stroke-linejoin="round" stroke-miterlimit="10" d="M22.5,15.5
			c0-1-1-2-2-2h-6c-1,0-2,1-2,2v8h10V15.5z"/>
		
			<rect x="14.5" y="8.5" fill="none" stroke="#000000" stroke-linecap="round" stroke-linejoin="round" stroke-miterlimit="10" width="6" height="5"/>
		<path fill="none" stroke="#000000" stroke-linecap="round" stroke-linejoin="round" stroke-miterlimit="10" d="M21.5,5.5h-8v2
			c0,0.5,0.5,1,1,1h6c0.5,0,1-0.5,1-1V5.5z"/>
		<path fill="none" stroke="#000000" stroke-linecap="round" stroke-linejoin="round" stroke-miterlimit="10" d="M23.5,4
			c0-0.825-0.675-1.5-1.5-1.5h-9c-0.825,0-1.5,0.675-1.5,1.5l0,0c0,0.825,0.675,1.5,1.5,1.5h9C22.825,5.5,23.5,4.825,23.5,4L23.5,4z
			"/>
		
			<line fill="none" stroke="#000000" stroke-linecap="round" stroke-linejoin="round" stroke-miterlimit="10" x1="17.5" y1="2.5" x2="17.5" y2="0.5"/>
	</g>
	
		<line fill="none" stroke="#000000" stroke-linecap="round" stroke-linejoin="round" stroke-miterlimit="10" x1="16.5" y1="0.5" x2="18.5" y2="0.5"/>
</g>
</svg>
