<?xml version="1.0" encoding="UTF-8" standalone="no"?>
<svg width="24px" height="24px" viewBox="0 0 24 24" version="1.1" xmlns="http://www.w3.org/2000/svg" xmlns:xlink="http://www.w3.org/1999/xlink" xmlns:sketch="http://www.bohemiancoding.com/sketch/ns">
    <!-- Generator: Sketch 3.4.4 (17249) - http://www.bohemiancoding.com/sketch -->
    <title>salt-pepper</title>
    <desc>Created with Sketch.</desc>
    <defs></defs>
    <g id="Page-1" stroke="none" stroke-width="1" fill="none" fill-rule="evenodd" sketch:type="MSPage">
        <g id="salt-pepper" sketch:type="MSLayerGroup">
            <g id="Group" sketch:type="MSShapeGroup">
                <g>
                    <path d="M10.5,23.5 L0.5,23.5 C0.5,19.9 1.5,13.5 5.5,13.5 C9.5,13.5 10.5,19.9 10.5,23.5 L10.5,23.5 Z" id="Shape" stroke="#000000"></path>
                    <path d="M4.5,15 C4.2,15 4,15.2 4,15.5 C4,15.8 4.2,16 4.5,16 C4.8,16 5,15.8 5,15.5 C5,15.2 4.8,15 4.5,15 L4.5,15 L4.5,15 Z" id="Shape" fill="#000000"></path>
                    <path d="M6.5,15 C6.2,15 6,15.2 6,15.5 C6,15.8 6.2,16 6.5,16 C6.8,16 7,15.8 7,15.5 C7,15.2 6.8,15 6.5,15 L6.5,15 L6.5,15 Z" id="Shape" fill="#000000"></path>
                    <path d="M22.5,15.5 C22.5,14.5 21.5,13.5 20.5,13.5 L14.5,13.5 C13.5,13.5 12.5,14.5 12.5,15.5 L12.5,23.5 L22.5,23.5 L22.5,15.5 L22.5,15.5 Z" id="Shape" stroke="#000000"></path>
                    <rect id="Rectangle-path" stroke="#FFFFFF" x="14.5" y="8.5" width="6" height="5"></rect>
                    <path d="M21.5,5.5 L13.5,5.5 L13.5,7.5 C13.5,8 14,8.5 14.5,8.5 L20.5,8.5 C21,8.5 21.5,8 21.5,7.5 L21.5,5.5 L21.5,5.5 Z" id="Shape" stroke="#000000"></path>
                    <path d="M23.5,4 C23.5,3.2 22.8,2.5 22,2.5 L13,2.5 C12.2,2.5 11.5,3.2 11.5,4 L11.5,4 C11.5,4.8 12.2,5.5 13,5.5 L22,5.5 C22.8,5.5 23.5,4.8 23.5,4 L23.5,4 L23.5,4 Z" id="Shape" stroke="#000000"></path>
                    <path d="M17.5,2.5 L17.5,0.5" id="Shape" stroke="#000000"></path>
                </g>
                <path d="M16.5,0.5 L18.5,0.5" id="Shape" stroke="#000000"></path>
            </g>
        </g>
    </g>
</svg>