<?xml version="1.0" encoding="utf-8"?>
<!-- Generator: Adobe Illustrator 16.0.0, SVG Export Plug-In . SVG Version: 6.00 Build 0)  -->
<!DOCTYPE svg PUBLIC "-//W3C//DTD SVG 1.1//EN" "http://www.w3.org/Graphics/SVG/1.1/DTD/svg11.dtd">
<svg version="1.1" id="Filled_Icon" xmlns="http://www.w3.org/2000/svg" xmlns:xlink="http://www.w3.org/1999/xlink" x="0px"
	 y="0px" width="24px" height="24px" viewBox="0 0 24 24" enable-background="new 0 0 24 24" xml:space="preserve">
<g>
	<path d="M12.025,18c0.026-0.341,0.079-0.675,0.156-1H8.396l-0.235-1h4.341c0.981-2.347,3.3-4,5.998-4
		c1.237,0,2.391,0.354,3.376,0.956l2.099-6.297C24.025,6.506,24,6.338,23.906,6.208S23.661,6,23.5,6H5.809L4.487,0.386
		C4.434,0.16,4.232,0,4,0H0.5C0.225,0,0,0.224,0,0.5S0.225,1,0.5,1h3.104l3.789,16.104C6.588,17.363,6,18.11,6,19
		c0,1.104,0.897,2,2,2c1.104,0,2-0.896,2-2c0-0.365-0.105-0.704-0.277-1H12.025z"/>
	<path d="M18.498,13c-3.032,0-5.5,2.467-5.5,5.5s2.468,5.5,5.5,5.5s5.5-2.467,5.5-5.5S21.53,13,18.498,13z M21.351,17.355l-3.025,3
		c-0.094,0.093-0.221,0.145-0.353,0.145c-0.143,0.01-0.262-0.054-0.356-0.148l-1.975-2.004c-0.193-0.197-0.191-0.515,0.006-0.708
		c0.195-0.193,0.514-0.192,0.707,0.004l1.622,1.648l2.669-2.647c0.197-0.194,0.513-0.192,0.708,0.003
		C21.548,16.844,21.546,17.161,21.351,17.355z"/>
</g>
</svg>
