<?xml version="1.0" encoding="utf-8"?>
<!-- Generator: Adobe Illustrator 17.1.0, SVG Export Plug-In . SVG Version: 6.00 Build 0)  -->
<!DOCTYPE svg PUBLIC "-//W3C//DTD SVG 1.1//EN" "http://www.w3.org/Graphics/SVG/1.1/DTD/svg11.dtd">
<svg version="1.1" id="Outline_Icons" xmlns="http://www.w3.org/2000/svg" xmlns:xlink="http://www.w3.org/1999/xlink" x="0px"
	 y="0px" width="24px" height="24px" viewBox="0 0 24 24" enable-background="new 0 0 24 24" xml:space="preserve">
<g>
	<path fill="none" stroke="#000000" stroke-linejoin="round" stroke-miterlimit="10" d="M5.094,16.5H11.5v5H6
		c-0.486,0-1.367-0.584-1.627-0.994l-0.277-0.601"/>
	<path fill="none" stroke="#000000" stroke-linejoin="round" stroke-miterlimit="10" d="M4.453,20.606c0,0-1.895-1.611,2.547-6.606
		c1.5,0,2,0,2,0L6,9.5H0.5L2,11c0,0-1,0.612-1,2C1,14.178,2.891,18.21,4.453,20.606z"/>
	<path fill="none" stroke="#000000" stroke-linejoin="round" stroke-miterlimit="10" d="M19.312,15.638l-3.449-4.984l4.338-3
		l3.185,4.607c0.277,0.4,0.265,1.125,0.074,1.572l-0.297,0.544"/>
	<path fill="none" stroke="#000000" stroke-linejoin="round" stroke-miterlimit="10" d="M23.461,13.833c0,0-0.328,2.477-6.961,1.667
		c0-1.153,0-1.5,0-1.5l-3,4.5l2.815,5l0.185-2.347c0,0,1.096,0.785,2.236-0.004C19.705,20.479,22.107,16.302,23.461,13.833z"/>
	<path fill="none" stroke="#000000" stroke-linejoin="round" stroke-miterlimit="10" d="M11.508,3.452L9.021,8.723l-4.768-2.25
		l2.391-5.067C6.852,0.967,7.518,0.591,8,0.532l0.619-0.015"/>
	<path fill="none" stroke="#000000" stroke-linejoin="round" stroke-miterlimit="10" d="M8,0.532c0,0,2.314-0.481,4.938,5.665
		L11.5,7.5H17l3-5.545l-2.029,0.748c0,0-0.051-1.154-1.305-1.747C15.6,0.454,10.814,0.468,8,0.532z"/>
</g>
</svg>
