<svg xmlns="http://www.w3.org/2000/svg" width="24" height="24" viewBox="0 0 24 24"><g stroke="#000" stroke-linecap="round" stroke-linejoin="round" stroke-miterlimit="10" fill="none"><path d="M8.191 12.57c-.408 1.705.139 3.188 3.002 2.521 2.251 1.891 3.367.994 3.817-.889.451-1.885-.906-5.625-2.833-6.988-1.038 2.457-3.475 3.225-3.986 5.356zM11.247 17.215c-.172-2.206-.141-5.043.871-6.65M.5 10.358l2.787 4.152 3.205-3.838M23.073 14.66l-2.786-4.151-3.206 3.837M20.25 10.547c.834 4.407-2.273 8.728-6.509 9.728-2.954.699-5.917-.239-7.931-2.224M3.292 14.482c-1.314-4.881 1.97-9.671 6.538-10.752 3.156-.746 6.316.372 8.325 2.641"/></g></svg>