<svg xmlns="http://www.w3.org/2000/svg" width="24" height="24" viewBox="0 0 24 24"><g stroke="#000" stroke-linejoin="round" stroke-miterlimit="10" fill="none"><path d="M6.5 21.5c0 1.104-.896 2-2 2s-2-.896-2-2v-5c0-1.104.896-2 2-2s2 .896 2 2v5zM19.5 21.5c0 1.104-.896 2-2 2s-2-.896-2-2v-5c0-1.104.896-2 2-2s2 .896 2 2v5z"/><path stroke-linecap="round" d="M8.5.5v6c0 2.209-1.791 4-4 4s-4-1.791-4-4v-6M4.5 14.5v-14M17.5 14.5v-9"/><path stroke-linecap="round" d="M17.5.5c4.438 0 5 12 5 12h-9.979s.542-12 4.979-12z"/></g></svg>