<?xml version="1.0" encoding="utf-8"?>
<!-- Generator: Adobe Illustrator 19.1.0, SVG Export Plug-In . SVG Version: 6.00 Build 0)  -->
<svg version="1.1" id="Layer_1" xmlns="http://www.w3.org/2000/svg" xmlns:xlink="http://www.w3.org/1999/xlink" x="0px" y="0px"
	 viewBox="0 0 70 70" enable-background="new 0 0 70 70" xml:space="preserve">
<g>
	<g id="Background_118_">
		<g>
			<rect x="1" y="23.7" fill="#F9F9F9" width="68" height="22.7"/>
		</g>
	</g>
	<g id="Top_39_">
		<g>
			<path fill="#09599E" d="M66.2,10.9H3.8c-1.6,0-2.8,1.3-2.8,2.8v9.9h68v-9.9C69,12.2,67.7,10.9,66.2,10.9z"/>
		</g>
	</g>
	<g id="Bottom_39_">
		<g>
			<path fill="#E59703" d="M1,46.3v9.9c0,1.6,1.3,2.8,2.8,2.8h62.3c1.6,0,2.8-1.3,2.8-2.8v-9.9H1z"/>
		</g>
	</g>
	<g id="Glare_118_" opacity="5.098039e-02">
		<g>
			<path fill="#FFFFFF" d="M66.2,10.9H3.8c-1.6,0-2.8,1.3-2.8,2.8v42.5C1,57.8,2.3,59,3.8,59L69,13.8C69,12.2,67.7,10.9,66.2,10.9z"
				/>
		</g>
	</g>
	<g>
		<polygon fill="#00589F" points="27.2,40.8 29.2,28.8 32.5,28.8 30.4,40.8 		"/>
		<path fill="#00589F" d="M42.2,29.1c-0.6-0.2-1.7-0.5-2.9-0.5c-3.2,0-5.5,1.6-5.5,3.9c0,1.7,1.6,2.7,2.8,3.2c1.3,0.6,1.7,1,1.7,1.5
			c0,0.8-1,1.2-1.9,1.2c-1.3,0-2-0.2-3.1-0.6l-0.4-0.2l-0.5,2.7c0.8,0.3,2.2,0.6,3.6,0.6c3.4,0,5.6-1.6,5.7-4.1
			c0-1.4-0.9-2.4-2.7-3.2c-1.1-0.6-1.8-0.9-1.8-1.5c0-0.5,0.6-1,1.9-1c1.1,0,1.8,0.2,2.4,0.5l0.3,0.1L42.2,29.1"/>
		<path fill="#00589F" d="M50.6,28.8h-2.5c-0.8,0-1.4,0.2-1.7,1l-4.8,10.9h3.4c0,0,0.6-1.5,0.7-1.8c0.4,0,3.7,0,4.2,0
			c0.1,0.4,0.4,1.8,0.4,1.8h3L50.6,28.8 M46.6,36.5c0.3-0.7,1.3-3.3,1.3-3.3c0,0,0.3-0.7,0.4-1.1l0.2,1c0,0,0.6,2.8,0.8,3.4H46.6z"
			/>
		<path fill="#00589F" d="M24.5,28.8L21.3,37l-0.3-1.7c-0.6-1.9-2.4-4-4.5-5l2.9,10.4l3.4,0l5.1-11.9H24.5"/>
		<path fill="#F9A51A" d="M18.3,28.8h-5.2l0,0.2c4.1,1,6.8,3.4,7.9,6.2l-1.1-5.5C19.6,29.1,19,28.9,18.3,28.8"/>
	</g>
</g>
</svg>
