<?xml version="1.0" encoding="UTF-8" standalone="no"?>
<svg width="146px" height="38px" viewBox="0 0 146 38" version="1.1" xmlns="http://www.w3.org/2000/svg" xmlns:xlink="http://www.w3.org/1999/xlink" xmlns:sketch="http://www.bohemiancoding.com/sketch/ns">
    <!-- Generator: Sketch 3.4.4 (17249) - http://www.bohemiancoding.com/sketch -->
    <title>Logo</title>
    <desc>Created with Sketch.</desc>
    <defs></defs>
    <g id="Desktop" stroke="none" stroke-width="1" fill="none" fill-rule="evenodd" sketch:type="MSPage">
        <g id="Únete-info-/-productos" sketch:type="MSArtboardGroup" transform="translate(-7.000000, -11.000000)">
            <g id="Header" sketch:type="MSLayerGroup">
                <g id="Logo" transform="translate(7.000000, 11.000000)" sketch:type="MSShapeGroup">
                    <g id="imagotipo" fill="#478541">
                        <path d="M28.1487968,10.2572167 C28.1180532,10.258866 28.0873097,10.2606185 28.0565662,10.262371 C28.0693588,10.3534995 28.0821514,10.444628 28.0948408,10.5357566 C28.1128949,10.5341072 28.1308459,10.5325609 28.1487968,10.5309115 L28.1487968,10.2572167 L28.1487968,10.2572167 Z M17.283538,16.7169303 C17.1493188,16.618895 17.0697777,16.5608572 16.9569138,16.4784911 C16.9380344,16.5814746 16.9275115,16.6387907 16.9130682,16.7169303 L17.283538,16.7169303 L17.283538,16.7169303 Z M20.6766746,25.6119611 C20.8282258,25.7372112 20.9238609,25.8162786 21.0868635,25.9510128 C21.0209403,25.7022649 20.9635799,25.5842308 20.6766746,25.6119611 L20.6766746,25.6119611 Z M26.5400229,34.764502 C26.6431891,34.8352194 26.6879633,34.8659392 26.7278886,34.8932572 C26.8451886,34.8043966 26.9877643,34.7535749 26.8979065,34.5814203 C26.8009303,34.631108 26.7092155,34.6779093 26.5400229,34.764502 L26.5400229,34.764502 Z M35.1350061,8.8017374 C35.1763757,8.79400591 35.2221815,8.78544972 35.2872794,8.77328551 C35.2813989,8.67143598 35.2761374,8.5807198 35.2673683,8.43072884 C35.1370694,8.52113576 35.0554649,8.57773029 34.9700433,8.63690198 C35.0355538,8.70236195 35.0824945,8.74926634 35.1350061,8.8017374 L35.1350061,8.8017374 Z M3.40582603,21.6304485 C3.32236457,21.7273499 3.076829,21.5880799 3.09900973,21.8599192 L3.40582603,21.8599192 L3.40582603,21.6304485 L3.40582603,21.6304485 Z M13.9661254,19.8549885 C14.1659584,19.7144816 14.1962893,19.6735562 14.30286,19.4270762 C13.9465239,19.4538787 13.9448732,19.4557343 13.9661254,19.8549885 L13.9661254,19.8549885 Z M9.51811438,23.1887051 C9.47633206,23.1336569 9.16941259,22.9864492 9.13567724,22.9760375 C9.03942317,23.0573728 8.96328651,23.1218019 8.88261054,23.1901483 C8.92140103,23.2241669 8.97205564,23.2685972 8.99795036,23.2913793 C9.16477011,23.2584947 9.31828143,23.2281872 9.51811438,23.1887051 L9.51811438,23.1887051 Z M32.9976086,3.26093742 C33.1072742,3.50525259 33.1791811,3.66565529 33.2508816,3.82626417 C33.3631264,3.87213769 33.4753713,3.91790813 33.621042,3.97738908 C33.6808784,3.50308777 33.3258834,3.46020376 32.9976086,3.26093742 L32.9976086,3.26093742 Z M21.7915918,24.698511 C21.6976074,25.0293158 21.4127655,25.2960007 21.4347399,25.6760809 C21.2753481,25.8153509 21.4021394,26.0026592 21.3542703,26.1575983 C21.2022033,26.6498366 21.162278,27.1712485 20.9875144,27.6527659 C20.9097271,27.8668767 20.9688413,27.9624379 21.1046081,28.0690294 C21.9391195,28.1073776 22.7492838,28.0206818 23.5466554,27.7219369 C23.4337916,27.1519713 23.6666377,26.583552 23.4200704,26.0449246 C23.4596863,25.4962979 23.3136029,24.9794219 23.1815502,24.461618 L22.4230722,24.461618 C22.4019231,24.4015186 22.3853134,24.3397697 22.3585933,24.2827628 C22.3320796,24.2262714 22.2953524,24.174625 22.2709021,24.1335966 C22.3281593,24.0592712 22.3671561,24.0085526 22.3801551,23.9916464 C22.2376825,23.8371196 22.1129546,23.7017669 21.9418018,23.5160049 L21.6763552,23.5160049 C21.6677924,23.4131245 21.6609834,23.3318923 21.6521111,23.2248885 C21.3683009,23.0815981 21.0842843,22.9381016 20.7759205,22.7823378 C20.6631599,23.1077821 20.8372013,23.3650862 20.961826,23.5734242 C21.0963548,23.7985652 21.3697452,23.9408247 21.576284,24.1140101 L21.576284,24.4668755 C21.7124634,24.5195527 21.8433813,24.5701682 21.9911153,24.6271751 C21.9328264,24.6479986 21.8880523,24.6640801 21.7915918,24.698511 L21.7915918,24.698511 Z M21.5190267,17.9959254 C22.1345163,18.3198234 22.984709,18.4905347 23.4281174,18.4870298 C23.8574952,18.483731 24.2873888,18.49806 24.7161475,18.4825971 C25.0574213,18.4704328 25.3877595,18.3464197 25.7224307,18.313432 C26.1665612,18.2696202 26.5156757,17.9224246 26.9754875,17.9708753 C27.5934531,17.681099 28.1963564,17.3575102 28.845375,17.1372143 C29.0806971,16.8734157 29.4309464,16.8065125 29.7157883,16.6281728 C29.8038923,16.5730215 29.8729104,16.4872534 29.9737038,16.3943724 C29.7098047,16.21995 29.5276131,16.022333 29.330772,15.8491476 C29.1359942,15.6777146 28.9231623,15.5914312 28.7128064,15.474531 C28.4830553,15.3469098 28.2240049,15.3262925 27.9797074,15.2527918 C27.1562347,15.0048686 27.3416244,15.0505359 26.5987245,15.1882596 C26.4403644,15.2176393 26.2852024,15.2718628 26.1259138,15.2878412 C25.5516906,15.3455697 24.9773644,15.5121576 24.381889,15.805645 C23.939306,16.0237762 23.4815575,16.202116 23.0858119,16.5187979 C22.7805431,16.76301 22.4190487,16.9412467 22.1507134,17.2339095 C21.9391195,17.4646172 21.7496032,17.7158392 21.5190267,17.9959254 L21.5190267,17.9959254 Z M38.9788758,17.4708024 C39.1460051,17.3641078 39.3211813,17.3050392 39.4083567,17.1830878 C39.5129673,17.0367048 39.6327432,16.9276393 39.7762474,16.8314595 C39.8980867,16.7498149 40.0213704,16.6687889 40.1342342,16.5758048 C40.558041,16.2265475 40.9562625,15.8405914 41.4083369,15.5334965 C41.6367468,15.3782481 41.8251283,15.1954756 42.0077325,15.0049717 C42.1965267,14.8080763 42.5137628,14.7412762 42.5903121,14.4331505 C43.0634323,14.0470913 43.330117,13.4867127 43.7522731,13.0559139 C43.8588438,12.9471576 43.9147599,12.7822191 43.9729456,12.6347022 C44.031544,12.485639 44.2186875,12.4444044 44.2558274,12.2974029 C44.3500181,11.9253635 44.5331381,11.5871365 44.6029817,11.2004588 C44.6931489,10.7013136 44.6438355,10.2093845 44.275429,9.90630998 C43.7755887,9.49509766 43.2063175,9.22841271 42.577829,9.31964432 C42.2388248,9.55798047 42.0665373,9.8585809 41.905598,10.1684591 C41.7488885,10.4699873 41.5175899,10.7235803 41.33643,11.0104702 C41.1574366,11.2940614 40.9322248,11.5640451 40.7346615,11.847327 C40.4378523,12.2729714 40.2035619,12.7221196 40.1052445,13.2174506 C39.8573361,13.3880588 39.6448137,13.5768103 39.397937,13.6926796 C39.1415689,13.8130848 39.0176663,14.0579154 38.8012236,14.2146069 C38.553831,14.3938745 38.3480145,14.6346847 38.1408567,14.8639492 C37.955467,15.0690915 37.7930834,15.2948511 37.6381278,15.4895816 C37.9572209,16.3165421 38.4156915,16.9906252 38.9788758,17.4708024 L38.9788758,17.4708024 Z M41.3391123,22.7452267 C41.4781804,22.9510905 41.5159392,23.2196311 41.6459286,23.4663172 C41.7946943,23.7485682 41.8920832,24.0634977 41.8877502,24.3963642 C41.8836236,24.7055209 41.8705215,25.0159145 41.8920832,25.3236279 C41.9088993,25.5635104 41.8505072,25.7842187 41.7806637,26.0019375 C41.5650463,26.6742681 41.0908944,27.1252719 40.4888164,27.45886 C40.4196951,27.4972082 40.3468597,27.5320515 40.2717547,27.5567923 C40.0004276,27.6459621 39.727553,27.730287 39.341505,27.8523415 L38.5370149,27.8523415 C38.3816466,27.5998824 38.0794728,27.5275157 37.9705293,27.2938184 C37.8538483,27.0433181 37.5376439,26.9145629 37.5441434,26.6135502 C37.4235421,26.4417048 37.2703402,26.2948065 37.2072025,26.1161575 C37.1168289,25.860812 36.9870458,25.6586593 36.7948472,25.5278424 C36.7067432,25.558253 36.6229723,25.560727 36.5921256,25.602374 C36.4488277,25.7966922 36.2151563,25.8796769 36.0653589,26.0827574 C35.9302112,26.2659422 35.674359,26.3602665 35.4722564,26.4943821 C35.4582258,26.503763 35.4425445,26.5161333 35.4363546,26.5307716 C35.3501076,26.7331306 35.1391327,26.8001368 34.9947,26.9389945 C34.8498547,27.0782644 34.7030492,27.2152665 34.5556246,27.3515469 C34.3818927,27.5119496 34.2038279,27.6677134 34.0326751,27.8307964 C33.8710137,27.9848077 33.6715934,28.1220159 33.5702842,28.3103551 C33.4694908,28.4977665 33.3210346,28.6452833 33.2241616,28.827128 C33.0824112,29.0934007 32.9366373,29.3625597 32.8408991,29.6468724 C32.6903796,30.0933404 32.5062279,30.5423855 32.6305432,31.0516331 C32.7042039,31.057406 32.7906571,31.0483343 32.866278,31.0728689 C33.2150829,31.186058 33.2087898,31.1687395 33.6115507,31.0699825 C33.8964957,30.9999867 34.1311989,30.9158681 34.2612914,30.6213498 C34.3065814,30.5189848 34.4528711,30.4609471 34.5233336,30.4057958 C34.6968592,30.1044737 34.8557351,29.8287171 34.9775744,29.6172866 C35.2108332,29.4135875 35.3956039,29.2523601 35.5876994,29.0847414 C35.8714065,29.1863847 36.1428368,29.2839046 36.3544306,29.5021389 C36.581809,29.7362485 36.8123854,29.9677809 37.0473981,30.1944683 C37.3543175,30.4904298 37.8093837,30.5353756 38.2533079,30.4609471 C38.5548627,30.4104347 38.7278724,30.1914788 38.982074,30.0937527 C39.1446639,30.0312823 39.3052937,29.9457204 39.4425048,29.8393351 C39.7449881,29.6048131 40.0349883,29.3539004 40.324679,29.103297 C40.5951808,28.8691874 40.9157182,28.6965174 41.1808554,28.4694177 C41.3826485,28.2965415 41.5932107,28.1463443 41.8084154,27.9965596 C42.1556729,27.7549246 42.5199528,27.5331854 42.8419345,27.2614492 C43.1269827,27.0208452 43.4176019,26.7851893 43.6539557,26.4804654 C43.8849449,26.1826483 44.011014,25.871533 44.0547564,25.5084621 C44.1322343,24.8646865 43.7664069,24.3940963 43.4487581,23.8714474 L43.4487581,23.1602532 C43.6813979,23.0144888 43.9074351,22.8967639 44.1510105,22.8164595 C44.5460339,22.686055 44.9518898,22.5788449 45.2775855,22.2998927 C45.5327155,22.0815553 45.7830999,21.8575482 46.0134701,21.6554986 C46.0134701,21.5604527 45.9912893,21.4889107 46.0168746,21.4604588 C46.256117,21.1957325 46.0620613,20.9363667 45.9294928,20.7682325 C45.798059,20.6017476 45.6131852,20.4106252 45.3096702,20.4335104 C44.9876885,20.4577357 44.6912919,20.5679353 44.3799363,20.6161798 C44.3550733,20.5946347 44.3308292,20.5737081 44.3063788,20.5526784 C44.2328213,20.6215403 44.2491216,20.7341108 44.0971577,20.7780257 C43.7145143,20.8886376 43.367979,21.0954292 43.0299033,21.3108802 C42.3952248,21.7154949 41.8207954,22.1072239 41.3391123,22.7452267 L41.3391123,22.7452267 Z M13.4989889,20.4755697 C13.3625,20.4374277 13.2860538,20.4051616 13.2070285,20.3962961 C13.0460892,20.378256 12.865342,20.3228985 12.726274,20.3740294 C12.5194257,20.4500042 12.3166009,20.5786563 12.1562807,20.7312244 C11.7152451,21.1505805 11.2687418,21.5677719 10.9127152,22.0672263 C10.7143266,22.345457 10.4805519,22.6056475 10.3258026,22.906351 C10.049214,23.4438443 9.61715394,23.8977345 9.48210937,24.5150169 C9.44692969,24.675935 9.24854108,24.796134 9.1910775,24.9583922 C9.07429335,25.2884754 8.93192398,25.6078376 8.81256068,25.9344158 C8.70330767,26.2332638 8.52565545,26.5111852 8.46953304,26.8208572 C8.39741986,27.2183591 8.26412912,27.6001917 8.19284127,27.9930546 C8.11773627,28.407875 7.87199436,28.7892953 7.9451392,29.2318459 C7.76748699,29.4170925 7.87013737,29.6485218 7.84125083,29.8584061 C7.81009463,30.0848873 7.75190889,30.3098222 7.74344926,30.5368188 C7.7274585,30.9653497 7.72539518,31.3953237 7.74262393,31.8237515 C7.75933686,32.2392935 7.7640825,32.663907 7.85847959,33.0645014 C7.91408617,33.3002604 7.85620993,33.6107572 8.12990988,33.7731185 C8.25474099,34.1539203 8.61448156,34.3028804 8.89189549,34.5277122 C9.23791496,34.8081077 9.63809668,34.9575832 10.0935755,34.9888184 C10.3565462,35.0069617 10.5692749,34.8732584 10.8041843,34.8489299 C10.7797339,34.7630588 10.7342376,34.6764661 10.734444,34.5900796 C10.7352693,34.2902007 10.5580298,34.0127948 10.6274606,33.7060092 C10.4343335,33.5231336 10.5386345,33.2889209 10.5299685,33.0791397 C10.5203741,32.8465764 10.389972,32.6468978 10.4119464,32.4003147 C10.4467134,32.0086888 10.4214377,31.6117024 10.421644,31.2170871 C10.6861622,30.8873131 10.3720211,30.4494014 10.6274606,30.1179781 C10.5767028,29.6637786 10.777258,29.2516385 10.8719645,28.8262003 C10.9707978,28.3818972 11.2330463,27.9743959 11.336522,27.5304021 C11.4446402,27.067028 11.7233952,26.6938546 11.8906277,26.2638805 C12.0568284,25.8364836 12.3580738,25.4638257 12.5635808,25.0491084 C12.8549222,24.461515 13.1875301,23.8987654 13.5144638,23.3316862 C13.7055276,23.0002628 13.8416038,22.6297697 14.0726961,22.3313341 C14.2832584,22.0594948 14.3518639,21.7571419 14.4543079,21.4741693 C14.2074312,21.0432674 13.7821801,20.8178171 13.4989889,20.4755697 L13.4989889,20.4755697 Z M8.89189549,11.4497221 C9.11958332,11.8448529 9.35604027,12.2443134 9.5812521,12.6500621 C9.73579508,12.9283958 9.8498969,13.232295 10.0275491,13.4938257 C10.1989082,13.7460785 10.3041377,14.0350301 10.5168664,14.2671811 C10.6874002,14.4531493 10.7929392,14.6988046 10.925611,14.9188944 C11.0495136,15.1243459 11.1858993,15.3282511 11.330951,15.511436 C11.699048,15.9765626 12.0306242,16.4697287 12.3945946,16.9376387 C12.7023394,17.3331818 13.1525567,17.6033717 13.3636348,18.0739619 C13.5888466,18.0163365 13.4871247,18.2677646 13.6072102,18.3331215 C13.7376123,18.403942 13.8245814,18.5502218 13.9418814,18.650422 C14.0659903,18.7562919 14.2270328,18.8268031 14.32958,18.9484453 C14.4873211,19.1355474 14.7200641,19.2344074 14.8586163,19.4394466 C15.000573,19.649537 15.2355856,19.7334495 15.4458384,19.8503497 C15.4891682,19.8744719 15.5209434,19.9203454 15.5560199,19.9580751 C15.9073008,20.3360936 16.3833097,20.5436068 16.7888561,20.8484338 C17.07865,21.0661526 17.4443742,21.1799602 17.7512936,21.378608 C18.0627524,21.5801423 18.4830515,21.5654009 18.7304441,21.8860001 C18.7432367,21.9027001 18.7994623,21.8790933 18.830309,21.8896082 C19.2377124,22.0274349 19.6428461,22.2146401 20.0596375,22.2673173 C20.3774926,22.3076242 20.6184889,22.522972 20.9465574,22.5271986 C21.0860381,22.5290541 21.2556434,22.5976067 21.4194713,22.6135851 C21.5959887,22.6310068 21.7682763,22.6954359 21.9445873,22.7096618 C22.4798136,22.7528551 23.0164842,22.7769773 23.55202,22.817078 C24.4189257,22.8818164 25.2760305,22.7237847 26.1396349,22.7129606 C26.1739892,22.7124451 26.223509,22.727805 26.2404282,22.7105896 C26.4272623,22.5211165 26.7028192,22.7049198 26.8604572,22.5954419 C27.0798917,22.443183 27.2916919,22.5587431 27.4895647,22.4786448 C27.6488533,22.4080305 27.8148478,22.3553533 27.9799137,22.300305 C28.1980071,22.2277321 28.4428205,22.2414426 28.6466769,22.1658802 C29.4214551,21.8790933 30.207169,21.6222016 30.9752414,21.3146944 C31.2625593,21.1995467 31.4978814,21.0052285 31.7838581,20.9013172 C31.9482019,20.8416301 32.1397815,20.8154461 32.2702868,20.7124626 C32.6172348,20.439077 33.0317566,20.3043429 33.4383346,20.0783771 C33.096545,19.7510773 32.9883236,19.2818272 32.6894511,18.912468 C32.3713897,18.519502 32.0502333,18.1481842 31.6216808,17.8691289 C31.3850176,18.0367476 31.1623849,18.2351893 30.905501,18.3671401 C30.4950027,18.5779521 30.0533481,18.7250567 29.6668875,18.988649 C29.5660941,19.0572016 29.4242406,19.0634899 29.3039488,19.1058585 C29.109171,19.174411 28.8963391,19.2180166 28.7271465,19.3275977 C28.3640015,19.5629443 27.9506145,19.6266518 27.5473378,19.7175741 C27.1846054,19.7994249 26.8363163,19.9396226 26.4528475,19.9509621 C26.254562,19.9568381 26.0634982,20.0949741 25.8618083,20.1289926 C25.6528967,20.1642483 25.443882,20.14961 25.2304311,20.2252755 C25.047311,20.2903231 24.8214802,20.2253786 24.6165921,20.242491 C24.4060299,20.2601188 24.1960867,20.3441343 23.9889289,20.3343411 C23.5559403,20.3136207 23.1276974,20.3492886 22.6854239,20.2644484 C22.2027092,20.1719797 21.6852275,20.2324916 21.1589767,20.0896136 C21.0678809,20.0481728 20.9430498,19.9641572 20.8062514,19.9339529 C20.2689618,19.8151971 19.7771685,19.6081993 19.3050799,19.3191446 C18.8353641,19.0316361 18.3691561,18.7348499 17.9378181,18.4008494 C17.4175509,17.997884 16.9543347,17.5197685 16.4800796,17.0602086 C16.2900475,16.876096 16.1495351,16.6418833 15.9636296,16.4529256 C15.5408545,16.0230546 15.1760587,15.5458669 14.7989862,15.0782662 C14.7359517,15.0001266 14.7471968,14.8806493 14.5899715,14.8495171 C14.4992884,14.831477 14.4408963,14.6511786 14.3679578,14.5439685 C14.2950193,14.4367585 14.2377621,14.3132608 14.14646,14.2249156 C13.7048054,13.7976218 13.4518419,13.2384802 13.1183055,12.7384073 C12.9821262,12.5342959 12.7581523,12.3616259 12.7331861,12.0857662 C12.2062131,11.3857053 11.7866361,10.5999795 11.0831458,10.069496 C10.7937645,9.87589945 10.4720923,9.94001929 10.1743546,9.92929829 C9.97947366,10.0844436 9.76818927,10.2045394 9.6258199,10.3804051 C9.50232995,10.5329732 9.40824237,10.710076 9.27391996,10.8629533 C9.1300031,11.026861 9.03137621,11.230457 8.89189549,11.4497221 L8.89189549,11.4497221 Z M7.11980953,13.6412395 C7.4642815,13.621653 7.81525294,13.6846389 8.19985657,13.5923764 C8.0944207,13.4441379 7.98351703,13.3490921 7.951845,13.2326043 C7.84960729,12.8568537 7.68093054,12.492752 7.73581496,12.0839107 C7.76697116,11.8518628 7.72095903,11.5998161 7.79441337,11.3857053 C7.88066032,11.1342772 7.94565503,10.8746021 8.08967506,10.6300808 C8.23586158,10.3821576 8.37895311,10.1342344 8.53236126,9.88723897 C8.86269946,9.35531227 9.62427241,8.87163009 10.0469444,8.71184591 C10.3001142,8.61607849 10.5641166,8.53206294 10.830698,8.4931993 C11.3094924,8.42320352 11.7048253,8.67957982 12.1072767,8.88482517 C12.4243065,9.046568 12.6584938,9.29583132 12.8155127,9.61251326 C13.2178609,9.40438148 13.4086153,9.0035809 13.6823152,8.78091391 C13.8220023,8.33774476 14.1126215,8.02415541 14.1969083,7.63902399 C14.2877977,7.22348204 14.4141763,6.80093019 14.3099784,6.38456354 C14.2727354,5.96561973 13.8718315,5.99221606 13.6457944,5.80666024 C13.3850934,5.80666024 13.1190277,5.76655956 12.8723573,5.81851519 C12.6458043,5.86614119 12.4408131,6.01437967 12.2250925,6.1155076 C12.0144271,6.21416144 11.8812395,6.41301543 11.6998734,6.51898843 L11.3406486,6.51898843 C11.0359988,6.32198999 10.7788054,6.15571136 10.5481258,6.00644201 C10.2324372,6.06272727 10.1980829,6.38301724 9.98855229,6.48342356 C9.81347923,6.56733603 9.69927424,6.70196708 9.56082519,6.81855799 C9.40989303,6.94566373 9.24369226,7.0549355 9.09585509,7.18534 C8.72961505,7.50841331 8.37823094,7.84859899 8.00456294,8.16260068 C7.80895981,8.32692067 7.56001974,8.43062575 7.46221818,8.69308416 C6.83837212,9.16109718 6.29520203,9.7119918 5.84519103,10.3455619 C5.7628644,10.4615342 5.65588104,10.5308084 5.57293541,10.6265758 C5.75326994,10.9503707 5.93174748,11.2707638 6.10228122,11.5768278 C6.00674931,11.7538275 5.88934617,11.865161 5.7539921,11.9738142 C5.4233444,12.2387467 5.03894711,12.4549192 4.86738171,12.8627297 L4.86738171,13.2701278 C5.0408041,13.3583699 5.18276081,13.4304274 5.38135576,13.5312461 C5.71066229,13.5229992 6.09392476,13.7128846 6.50081228,13.6412395 C6.52165186,13.8571027 6.74903018,13.6587642 6.7972088,13.7683452 C6.7599658,13.865762 6.73015077,13.9439016 6.69166977,14.0443079 L6.89356604,14.0443079 C6.90718398,13.944314 6.91977026,13.8516391 6.92626973,13.803807 C7.01334201,13.7307186 7.06657577,13.685979 7.11980953,13.6412395 L7.11980953,13.6412395 Z M44.2261155,26.7195231 C44.2423126,26.7301411 44.2585097,26.7405528 44.2746036,26.7510676 C44.4067595,26.6329304 44.5390186,26.5147932 44.6506445,26.4149023 C44.7718647,26.4678888 44.8542945,26.503866 44.9612779,26.5505643 L44.9612779,26.1193531 C44.831598,26.0470895 44.7150202,25.982248 44.5607867,25.8962738 C44.4400822,26.1932662 44.3330989,26.4564462 44.2606762,26.7285948 C44.1945466,26.7345738 44.1309963,26.7402435 44.0338137,26.7490059 C44.0746675,26.8570406 44.1045857,26.9360049 44.1262506,26.9933211 C44.0532089,27.0981601 43.9891427,27.1900102 43.9826433,27.1993911 C44.0381467,27.3279401 44.0728105,27.4084507 44.1099504,27.4947341 C44.2883247,27.3906167 44.4258453,27.3103123 44.5600645,27.2318634 C44.489602,27.0321847 44.2087836,26.9841464 44.2261155,26.7195231 L44.2261155,26.7195231 Z M25.2770622,27.8671859 C25.2747925,28.1322215 25.3773398,28.3714854 25.4585316,28.6165222 C25.5386917,28.8583633 25.6180265,29.1008229 25.6881795,29.3457566 C25.7411038,29.5310031 25.7317157,29.7548041 25.836223,29.8991253 C25.954761,30.0625175 25.7878381,30.291782 25.9992257,30.4022908 C26.0808301,30.7952568 26.3063515,31.14204 26.3939396,31.5246974 C26.4852417,31.9228177 26.6752738,32.2691886 26.8248648,32.6370014 C27.1470529,33.4289125 27.6087217,34.1408283 28.0775089,34.8508886 C28.21472,35.0589173 28.2726994,35.3182831 28.3734928,35.5512587 C28.4180606,35.6542422 28.478516,35.7505251 28.5681674,35.9178346 L28.5681674,37.0124078 C28.5075057,37.0557041 28.4105294,37.1248752 28.2360754,37.2491976 C27.6981668,37.252084 27.2021436,36.9548855 26.8306421,36.463781 C26.5315633,36.0682379 26.3771235,35.5902255 26.2053517,35.1272637 C26.034199,34.665642 25.8991544,34.185671 25.6780692,33.7493055 C25.4984569,33.394997 25.3729036,33.0082162 25.1127184,32.6915342 C25.0276063,32.5879322 25.0543264,32.3680486 24.9595166,32.3017639 C24.7298686,32.141052 24.7340984,31.8761195 24.6105053,31.6724204 C24.4890787,31.4722263 24.455756,31.2199735 24.3433048,31.0124602 C24.1751439,30.7022727 24.0815722,30.3641488 23.9352825,30.0470545 C23.7839377,29.7184145 23.475058,29.6142971 23.1948586,29.485542 C22.8639014,29.8001622 22.7538231,30.1978701 22.7192624,30.562075 C22.6752104,31.0261707 22.545221,31.482535 22.586178,31.9608566 C22.6256906,32.4212413 22.5197389,32.9033771 22.6132075,33.3474741 C22.7381418,33.940428 22.7276189,34.531011 22.6808846,35.1107698 C22.6202228,35.8621678 22.6403402,36.6505739 22.1851709,37.3224922 C22.1612364,37.3578509 22.1820759,37.423517 22.1820759,37.4929973 C22.0634348,37.5945376 21.934477,37.7046341 21.7555868,37.8574084 L20.7965538,37.8574084 C20.4537325,37.4304238 20.4142198,36.9458138 20.4263934,36.4448131 C20.4358847,36.0499916 20.4421778,35.6541391 20.4247428,35.2599361 C20.4038,34.7873873 20.5782541,34.3365897 20.5453441,33.8586804 C20.5311071,33.6524041 20.6958635,33.4399427 20.7302179,33.2224301 C20.7646754,33.0046082 20.680595,32.7574066 20.74951,32.557934 C20.8994105,32.1246612 20.8032596,31.6889143 20.8440102,31.2571877 C20.8590725,31.0982282 20.7740635,30.9751429 20.7438358,30.8345328 C20.7155683,30.7032005 20.737749,30.5610441 20.737749,30.4292995 C20.6442804,30.2942561 20.553391,30.16313 20.4627079,30.0320039 C19.9985631,30.1057108 19.8695022,30.5162015 19.7182606,30.8500989 C19.4862398,31.3624391 18.9614333,32.4262925 18.6992879,32.8506999 C18.3310877,33.4469526 17.9498886,34.0370201 17.7371599,34.7195563 C17.6437944,35.0190228 17.4583016,35.290759 17.3076789,35.5713606 C17.0826734,35.9907168 16.8442563,36.2975024 16.3742311,36.6112979 C15.9964364,36.8634477 15.722427,36.8869514 15.2172221,36.7432487 C15.0872326,36.7061376 14.9510532,36.7189203 14.8671791,36.585217 C14.7767023,36.036178 15.0765033,35.3458072 15.3440133,34.834704 C15.5514806,34.43813 15.7524483,34.0419683 15.9835407,33.6565276 C16.2740567,33.1717115 16.7002363,32.7800856 16.9205993,32.2513546 C17.2501122,32.0515728 17.3557544,31.6823167 17.5741573,31.3991379 C17.8032894,31.1021455 17.969387,30.7724747 18.163649,30.4569267 C18.4339444,30.0177779 18.6600848,29.5648155 18.7775911,29.0612376 C19.0719243,28.8498071 19.0981285,28.4849837 19.1637422,28.1954136 C19.2348237,27.8819273 19.3390216,27.5700904 19.4192849,27.2621708 C19.5151263,26.8941518 19.6313946,26.527576 19.7320848,26.1566705 C19.8328782,25.7855588 19.891064,25.4047571 19.999079,25.034367 C20.0519001,24.8530377 20.0867703,24.6617091 20.1518681,24.4775965 C20.2055146,24.325853 20.2181008,24.1597806 20.2465747,24.012676 C19.8819853,23.8011424 19.473963,23.7903183 19.1578617,23.5573427 C19.1453786,23.548168 19.1286657,23.5374469 19.1146351,23.5385809 C18.6764882,23.5711563 18.2508244,23.3360158 17.818558,23.4425042 C17.4166225,23.5415704 17.0120046,23.6278539 16.6146083,23.7662991 C16.0791757,23.9529889 15.6923024,24.3517278 15.201644,24.5896516 C15.145212,24.6169695 15.1046677,24.683048 15.0646392,24.7369623 C14.9970654,24.8279877 14.9563147,24.9546811 14.8686234,25.0124096 C14.4177871,25.3090927 14.2019634,25.7910224 13.887616,26.1963588 C13.7153284,26.4186135 13.6504369,26.7036478 13.4791809,26.8993061 C13.2948229,27.109912 13.3349546,27.4062859 13.1282095,27.5847287 C13.0323681,28.0400621 12.7377254,28.4207608 12.6504468,28.8820732 C12.5789526,29.2602978 12.4724851,29.6319249 12.3812862,30.0064384 C12.3471381,30.1469454 12.3193864,30.2893079 12.2767788,30.4271347 C12.1820722,30.733508 12.2257115,31.0617356 12.1600978,31.3605836 C12.0080308,32.0527068 12.1077925,32.7439022 12.073954,33.4338606 C12.0626057,33.6643622 12.1039754,33.8867199 12.1582408,34.1163968 C12.2133316,34.3496817 12.1939363,34.6037901 12.2743028,34.8439818 C12.3453843,35.0565463 12.381183,35.2805534 12.4366864,35.4985815 C12.4839365,35.6845497 12.538821,35.8685592 12.5871027,36.0544243 C12.6234172,36.1941066 12.6547798,36.335129 12.685936,36.4656366 C12.4634065,36.7098487 12.1114034,36.5465596 11.8690659,36.7326308 C11.2092149,36.7943797 10.5679337,37.0025115 9.89116339,36.9477725 C9.64222333,36.9275675 9.4001954,36.8966415 9.1614688,36.8344803 C8.62129053,36.6934579 8.05666187,36.6350078 7.56837621,36.3228617 C7.10897708,36.0291681 6.76378295,35.6417687 6.52371518,35.1564372 C6.50989091,35.1283976 6.50029645,35.0938636 6.50205028,35.0630408 C6.52546901,34.6428599 6.3389445,34.2429871 6.39228143,33.8168272 C6.41858882,33.6068399 6.40404238,33.3948939 6.30211417,33.186659 C6.21937487,33.017494 6.21627988,32.811527 6.15634031,32.6290638 C6.0165501,32.2026977 5.74934962,31.8844695 5.34163677,31.6788118 C4.95682681,31.4848029 4.54993928,31.3120298 4.21237945,31.0525609 C3.74338587,30.6920672 3.19093082,30.4431131 2.7907491,29.9900476 C2.7089383,29.897579 2.588337,29.8391289 2.46825153,29.7525362 C2.60969241,29.6675928 2.74741929,29.5848143 2.89804196,29.4943043 C2.99336753,29.5765674 3.08002715,29.6513052 3.19227198,29.7481034 C3.30142183,29.6530576 3.41108751,29.5577026 3.50280227,29.4777074 L3.50280227,29.2268978 L2.21446266,29.2268978 C2.18949644,29.1526754 2.16948219,29.0935037 2.14389697,29.0177351 L1.88938594,29.0177351 C1.82480389,28.9880462 1.78983055,28.9811394 1.76795931,28.9605221 C1.46805514,28.6773433 1.24831112,28.33056 1.03826472,27.982849 C0.841526761,27.6571986 0.630242367,27.3258783 0.57463578,26.9402315 C0.508403075,26.481187 0.273080953,26.0394611 0.499840279,25.5461918 C0.596197518,25.3365137 0.497261124,25.0609633 0.613116776,24.8202562 C0.696578238,24.6467615 0.740320711,24.459144 0.952739934,24.3183277 C1.2538821,24.7084073 1.68697384,24.9442694 1.87473634,25.4343429 C1.96139595,25.6605148 2.22684261,25.808341 2.3038046,26.0821389 C2.33619879,26.1974928 2.4750605,26.297796 2.58689267,26.3734615 C3.03556251,26.6770515 3.4135635,27.0458952 3.72058614,27.4936002 C3.78826317,27.5924602 4.00398371,27.6414263 4.00872936,27.7218339 C4.0207998,27.9264607 4.22166441,27.8450223 4.28696862,27.9631595 C4.3508285,28.0788226 4.464105,28.1753117 4.57356435,28.2557192 C4.77999993,28.4074626 4.9806582,28.5673499 5.20731436,28.6926001 C5.43262936,28.8171286 5.64246943,28.9693875 5.86407045,29.1010291 C5.90224194,29.1237081 5.9652765,29.1042247 6.04419865,29.1042247 C6.1603638,28.6326037 6.38516296,28.1860327 6.4073437,27.6764758 C6.41363684,27.5306083 6.53588879,27.389792 6.61295395,27.2304202 C6.4665611,27.0088871 6.33244503,26.766943 6.16118913,26.5548939 C5.83085093,26.1461557 5.46553938,25.7650446 5.21670249,25.2954853 C4.82869438,25.0597263 4.66383478,24.6278967 4.35928813,24.3133796 C3.94909929,23.8898999 3.62195924,23.3869406 3.25272738,22.9231541 C3.06589338,22.6883229 2.84522086,22.4785417 2.67479028,22.2331957 C2.31474022,21.7146702 1.90496404,21.2296479 1.61083718,20.6654551 C1.4999335,20.4524783 1.36055596,20.2542428 1.20735414,20.0060104 C1.54233481,19.7152032 1.79746485,19.3347106 2.21879564,19.1104973 L2.62227868,19.1104973 C3.02194457,19.4167675 3.38870044,19.7717977 3.6984054,20.1768248 C4.05257499,20.6399928 4.38621451,21.1195515 4.71417989,21.6018935 C4.9675561,21.9742422 5.20421938,22.3644249 5.4841093,22.7105896 C5.70096467,22.9786147 5.87387124,23.2832355 6.12497779,23.5250766 C6.39723341,23.7872257 6.65535526,24.0643224 6.9318407,24.3217296 C7.00931852,24.3938902 7.12991982,24.4196618 7.23494302,24.468731 C7.75820203,24.2538986 7.84960729,23.7674331 7.93698907,23.2992139 C7.98341386,23.0502598 7.97175608,22.7818224 7.93709224,22.528951 C7.9072772,22.3116446 7.83629885,22.0880498 7.73055349,21.8964119 C7.63089493,21.7160104 7.6221258,21.4923125 7.39464431,21.3570629 C7.23587152,21.2624295 7.17097997,21.0162587 7.05367999,20.8449289 C6.81485022,20.4960839 6.59985184,20.1235291 6.31573211,19.8154033 C6.09846407,19.5799536 5.95568204,19.3083205 5.77885516,19.0534905 C5.86458628,18.8450494 5.55508765,18.9626712 5.56385678,18.7867024 C5.56984042,18.6674313 5.52661378,18.5171311 5.44996129,18.428889 C5.327503,18.2879696 5.37568162,18.1494213 5.37733228,18.0497366 C5.56561061,17.810885 5.93092215,17.8389245 5.99168705,17.5003882 C6.45428432,17.2422595 6.88438425,16.8991874 7.49492187,16.9424837 C7.84372682,17.37988 8.19624575,17.8357288 8.36048635,18.4115704 C8.46066074,18.7629925 8.55670848,19.1163733 8.76458839,19.4304781 C8.84949418,19.5589239 8.86827043,19.7309754 8.92614668,19.9112738 L9.1379469,19.9112738 C9.16332579,19.9855992 9.18385586,20.0454925 9.20190995,20.0983759 C9.35005663,20.169918 9.49345765,20.2392953 9.66657055,20.3228985 C9.85577738,20.1656915 10.0826399,20.004361 10.2756638,19.8096305 C10.5104701,19.5726344 10.7501252,19.3278038 10.9227223,19.0465837 C11.01877,18.8900983 11.184455,18.8073197 11.253989,18.6281553 C11.3226977,18.4513618 11.4447433,18.2922993 11.5601863,18.1380817 C11.6026908,18.0813841 11.6933739,18.0605606 11.7618762,18.0231402 C11.5484254,17.9733494 11.4619721,17.7660423 11.3822246,17.6205872 C11.2088022,17.3046268 11.0275392,17.0056758 10.7907727,16.7309501 C10.6368487,16.5523011 10.5423485,16.3223149 10.4211282,16.1153171 C10.532135,16.0250133 10.643245,15.9347094 10.7292857,15.8648167 C10.7303173,15.657922 10.7722028,15.4810254 10.6005342,15.4206167 C10.4500147,15.4665933 10.3310641,15.5029829 10.2196446,15.5370014 C10.2538958,15.7024554 10.2859805,15.8573945 10.317962,16.0122305 L10.2147958,16.0122305 C10.1804414,15.9779027 10.1460871,15.9435749 10.1116296,15.909144 C10.0660301,15.8539926 10.0204306,15.7986352 9.96771271,15.7350307 C9.76911776,15.6349337 9.55556371,15.5274144 9.23162182,15.3643314 C9.11401234,15.3212413 8.83670157,15.5148378 8.62129053,15.2961912 C8.43744835,15.4862829 8.20367372,15.356703 7.99600014,15.3937111 C7.80390466,15.4280389 7.61077752,15.4570063 7.42022953,15.498344 C7.2163731,15.5425681 7.0155085,15.6000904 6.8124774,15.648438 C6.71787399,15.6709109 6.62161991,15.6980227 6.52546901,15.7004967 C6.25063423,15.7075066 5.97466462,15.7163721 5.70065517,15.6990535 C5.45594493,15.6835905 5.19472809,15.6796733 4.97384923,15.5896787 C4.60719653,15.4403062 4.22434673,15.3545382 3.87285946,15.1231089 C3.45730597,14.8496202 3.04082399,14.5898421 2.70563698,14.2242971 C2.30669325,13.7891687 1.90795586,13.3499168 1.65189733,12.8069599 C1.63838255,12.7780956 1.63064509,12.7382011 1.60753586,12.7235628 C1.29504541,12.5262551 1.20652881,12.1635966 0.993903251,11.8922727 C0.764977435,11.6002285 0.574326282,11.2779799 0.370160355,10.9668646 C0.335806008,10.9143935 0.317339257,10.8516138 0.297840843,10.807802 C0.193230308,10.743476 0.097079402,10.6843043 0.00526147662,10.6277098 C-0.0313625273,10.0489818 0.119363303,9.56653665 0.592174036,9.19758982 C0.889395882,9.26284362 1.16392116,9.38726911 1.38964883,9.61519351 C1.81283661,10.0424873 2.23561173,10.4703997 2.66756865,10.888725 C2.81953247,11.0358295 2.99821635,11.1554099 3.19247832,11.3098336 C3.30100917,11.2105612 3.3976759,11.1220099 3.50899224,11.0202634 C3.50899224,10.9638751 3.49939779,10.895838 3.5109524,10.831615 C3.53952944,10.6730679 3.62185608,10.5105004 3.60235766,10.359994 C3.56975714,10.1089782 3.50290544,9.85301423 3.39736641,9.62354353 C3.30379465,9.41994755 3.14048255,9.2476899 3.00306516,9.06522667 C2.90712058,8.93801784 2.8215958,8.79215035 2.69759001,8.69988787 C2.56491827,8.60102785 2.52684994,8.43722329 2.39190854,8.34609477 C2.25665764,8.25465698 2.18702045,8.07291536 1.9954408,8.05693694 C1.7777601,7.75190379 1.56668204,7.44212865 1.34074804,7.14338377 C1.09892645,6.82360924 1.12925732,6.45806426 1.14287526,6.09736436 C1.15659636,5.80160899 1.44381109,5.70893417 1.60041739,5.5298728 C1.75269071,5.3556565 2.01947853,5.24762177 2.32505684,5.18927478 C2.48620245,5.40183928 2.7614499,5.54110924 2.94343509,5.79841331 C3.11242134,6.03726489 3.3311337,6.24096395 3.54902073,6.48362973 C3.19908095,6.51775139 3.19908095,6.51775139 2.888757,6.4109537 C2.9867649,6.80020858 3.0456728,7.17575295 3.21775404,7.50779479 C3.28099492,7.62984929 3.47649489,7.68860863 3.61824526,7.76365565 C3.81281673,7.86674222 4.04215521,7.92405836 4.08703251,8.27939776 C4.20711797,8.12074753 4.26912087,8.03539185 4.33483774,7.95302568 C4.40787942,7.86127864 4.48422241,7.77221184 4.56479522,7.67510429 L5.12498773,7.67510429 C5.42066208,7.37976127 5.68538657,7.11524114 5.97579945,6.82505245 C5.98002926,6.83628888 5.96290367,6.79175549 5.94608758,6.74701592 C5.8901715,6.59846817 5.77565701,6.44280745 5.7921636,6.30260972 C5.81836782,6.08045816 5.54735019,6.13798047 5.53507341,5.94129129 C5.52620111,5.80099048 5.289022,5.74460212 5.2447637,5.5490469 C5.22382096,5.45668134 5.03636796,5.40977695 4.93970122,5.32483361 C4.79805402,5.20020195 4.67023108,5.05990113 4.53652768,4.92630094 C4.39075383,4.78063962 4.25993907,4.61394864 4.09446048,4.49539908 C3.95023412,4.39220943 3.96405839,4.14655414 3.74060038,4.13098806 C3.68932678,3.96192609 3.61339645,3.80729624 3.59492969,3.61906016 C3.58017693,3.46803834 3.43502207,3.34484989 3.59750885,3.17692187 C3.64857612,3.12424463 3.60545265,2.98043887 3.60545265,2.88312515 C3.89576236,2.57448396 4.16791482,2.25615264 4.58522213,2.12172776 C4.99448248,2.02410477 5.37640378,2.1145117 5.67496679,2.41067941 C5.87562506,2.60973957 6.03223137,2.85694116 6.18894084,3.0953804 C6.48812284,3.55061068 6.68114682,4.06655896 7.00292222,4.51106824 C7.1418871,4.70311852 7.23803801,4.92609477 7.36513878,5.15556547 C7.54258466,5.26535266 7.74633792,5.39153062 7.96360595,5.52616168 C8.34459876,5.18669761 8.29672964,4.77682542 8.20284839,4.37045816 C8.16405789,4.20263323 8.11556978,4.03614842 7.96216162,3.89842476 C7.81308645,3.76451531 7.74004478,3.54844586 7.62429229,3.37464191 C7.39237466,3.02651857 7.11434172,2.70746564 6.96825837,2.30614963 C6.89779585,2.11244996 6.81784204,1.92225524 6.71054919,1.65041596 L6.71054919,1.32827044 C6.88015443,1.12869484 7.06131429,0.913553171 7.33171293,0.866958042 C7.5845733,0.823352423 7.72137169,0.566873041 7.99115133,0.584810104 C8.20047557,0.617385459 8.28094521,0.821703038 8.40938714,0.968498312 C8.53906706,1.11642754 8.71599711,1.21209187 8.78872929,1.42898601 C8.86847676,1.66649747 8.98649891,1.90442127 9.1010134,2.12090306 C9.27185664,2.44407946 9.38709329,2.8013775 9.61333679,3.09744213 C9.66914971,3.17063359 9.68895762,3.27134917 9.75653149,3.43505064 C10.1215335,3.89512599 10.6263258,4.28118519 11.3959457,4.38344707 C11.2371729,4.06707439 11.2313956,3.76668013 11.0072154,3.55452797 C10.9740991,3.52318966 10.9594495,3.4721618 10.9370624,3.42989631 C10.7289762,3.03507475 10.5137715,2.64375814 10.315486,2.2441946 C10.1674425,1.94575898 10.0429209,1.63567458 9.90344017,1.33280625 C9.88321959,1.28889137 9.83803279,1.25631601 9.80244045,1.21621534 L9.80244045,0.432654328 C9.97307736,0.293178201 10.1257633,0.168340367 10.2886628,0.0351525199 L11.1439107,0.0351525199 C11.330332,0.161742826 11.4857003,0.25534543 11.6268317,0.366885098 C11.7340214,0.451416084 11.8515277,0.543060043 11.9156971,0.658517 C12.1858894,1.14601338 12.605879,1.55660719 12.6907848,2.14048951 C13.0294794,2.53613576 13.139661,3.06940258 13.4870216,3.46051302 C13.5398427,3.52009706 13.5728559,3.59699964 13.6197965,3.66245961 C13.965197,4.14428623 14.3850834,4.5351905 14.9251585,4.8007415 C15.1681149,4.92021883 15.3669162,5.11979443 15.5956357,5.2719502 C16.0101575,5.54760369 16.1889446,6.00551423 16.2902538,6.46950687 C16.3418369,6.70557511 16.4264332,6.93690137 16.4150849,7.19771039 C16.3911503,7.74592476 16.2588913,8.26867675 15.9771443,8.71751567 C15.7546148,9.0719273 15.6068808,9.50447854 15.2087624,9.73363998 C15.0484421,10.2020653 14.6465066,10.516067 14.4374919,10.9598547 C14.1460473,11.5786834 14.2337386,12.1696787 14.5965741,12.6827405 C14.8321026,13.0157102 15.0394667,13.3958934 15.4072542,13.6373222 C15.5496236,13.7308217 15.651655,13.9058627 15.7340848,14.0635851 C15.7966035,14.1830625 15.8815093,14.2429558 15.9814773,14.3196522 C16.0680338,14.3860399 16.0836119,14.5448963 16.1468528,14.7035465 C16.4682155,14.4976827 16.77823,14.2990348 17.1160993,14.0825531 C17.2144167,14.2131637 17.3401763,14.3800609 17.4606744,14.5401543 C17.8419767,14.4902604 17.9249224,14.1203858 18.1572527,13.8925645 C17.8912902,13.839578 17.6264625,13.7866946 17.3462631,13.7308217 C17.5068929,13.446612 17.6910446,13.1872462 17.8039084,12.8999439 C17.8970675,12.6627417 17.9378181,12.3933765 17.9459683,12.1365879 C17.9655698,11.5187901 18.0273664,10.8885188 17.9338978,10.2845346 C17.8077255,9.46994454 17.8736488,8.66143658 17.8536345,7.85096998 C17.8332076,7.02699904 17.8572453,6.20210031 17.8446591,5.37782011 C17.8403261,5.09134254 17.8984086,4.82053412 17.9486506,4.54374668 C17.9955912,4.285721 17.8782912,4.00738727 18.0507851,3.75946407 C18.0830762,3.7131782 18.0591416,3.62503918 18.0548086,3.5565897 C18.0276759,3.12249216 18.1535387,2.70901194 18.2724893,2.30542802 C18.3903051,1.90524596 18.4563315,1.49300277 18.605613,1.09086207 C19.1469261,0.848917892 19.9328463,0.932624186 20.4309327,1.20734989 C20.3613987,1.60897516 20.5928005,1.99668375 20.5359559,2.42284362 C20.4989193,2.7000434 20.5441061,2.97817097 20.4402177,3.25990656 C20.3519074,3.49958283 20.4597161,3.77503014 20.3412813,4.04429226 C20.255447,4.23902279 20.2974357,4.49003858 20.2396626,4.72033398 C20.1882858,4.92527007 20.1668272,5.12835061 20.0491146,5.31504039 C19.9438851,5.48183446 20.1019357,5.7225416 19.9124194,5.8760375 C19.9397584,6.35971968 19.7634474,6.81587774 19.6827714,7.28090125 C19.5975561,7.77179949 19.6425366,8.25311068 19.6008574,8.73638052 C19.5658841,9.14161382 19.7562257,9.50004582 19.8255534,9.88342476 C19.8491785,10.0138293 19.9849452,10.1246473 20.0713985,10.2430938 C20.1376312,10.33381 20.2067526,10.4225675 20.2781436,10.5167886 C20.6431456,10.3626742 21.046835,10.2234043 21.419884,10.0261997 C21.803456,9.8233253 22.1571097,9.56395949 22.5368645,9.32098445 L23.1700987,9.32098445 C23.3010166,9.45056426 23.4540121,9.60220461 23.6175306,9.76415361 C23.7297754,9.61931698 23.8188078,9.50952978 23.9022693,9.39561912 C23.9887226,9.27737883 24.0697081,9.15511816 24.163383,9.01986858 L24.5003238,9.01986858 C24.6073072,8.82359175 24.7059341,8.642881 24.8233372,8.42763624 C24.6451692,8.26743972 24.4939275,8.13157162 24.3174101,7.97271522 C24.3999431,7.78808717 24.4842299,7.59995418 24.611537,7.31564143 C24.4386304,7.43243851 24.3474315,7.50026947 24.2502489,7.55810104 C24.1268621,7.63139559 24.0052292,7.72180251 23.8703909,7.75808898 C23.7430838,7.79210755 23.5995796,7.76530504 23.4525678,7.76530504 C23.3989214,7.84643417 23.3461003,7.92653243 23.2653211,8.04899928 C23.1900098,8.07178141 23.0600204,8.11105739 22.8861853,8.16363154 C22.9721228,7.78581927 23.0519734,7.42810887 23.1359507,7.07132626 C23.154108,6.99442368 23.2043499,6.92236617 23.2103335,6.84587593 C23.2244673,6.66588679 23.2103335,6.49321678 23.3068971,6.3165264 C23.3793198,6.18395708 23.2487114,5.97716542 23.4200704,5.84944116 C23.3859224,5.57986979 23.487438,5.32668917 23.5120947,5.06660176 C23.5320058,4.85640825 23.6057696,4.69208826 23.7068725,4.52611888 C23.8680181,3.35773571 24.2229099,2.25048288 24.8010533,1.19693815 C25.0630955,1.10859296 25.20433,0.836753677 25.4344938,0.658310827 C26.8626237,0.517288401 26.6353485,0.651197854 27.43076,1.09972751 C27.2287605,1.49042561 27.0289276,1.88267 26.8239363,2.27223415 C26.631325,2.63829455 26.4710047,3.01919942 26.2954158,3.39319749 C26.1265328,3.75338196 25.9178275,4.09532011 25.7566819,4.45859718 C25.6281368,4.74837352 25.5228041,5.04773692 25.3884817,5.33710092 C25.2555005,5.62368158 25.1901962,5.94170364 25.0954897,6.24601519 C25.0861015,6.27652882 25.0717614,6.30786713 25.0717614,6.3387931 C25.0740311,6.8937081 24.8882288,7.43831444 24.9700396,7.99621895 C25.0264715,8.38176272 25.1007511,8.7649355 25.1787448,9.14687123 C25.1901962,9.20377502 25.2658171,9.24779298 25.3293675,9.31706716 C25.7022101,9.27408006 26.1195175,9.42448336 26.4672907,9.10697673 L27.0044772,9.10697673 C27.0188173,8.98162346 27.0333637,8.85410538 27.0487355,8.71957741 C27.0740112,8.72401013 27.1042389,8.7204021 27.1207455,8.73370027 C27.2299985,8.82122076 27.3363629,8.91245238 27.4435526,9.00234386 C27.5292837,9.10594586 27.6150148,9.20954787 27.715086,9.33036532 C27.7921512,9.09594647 27.7496467,8.95915059 27.5467188,8.89925729 C27.4050716,8.75936882 27.39166,8.50618821 27.1262133,8.44742886 C27.2087463,8.02446467 27.4119837,7.64160116 27.5316565,7.23544008 C27.6572098,6.80948638 27.9821833,6.52898782 28.1616925,6.15416506 C28.3565735,5.74738546 28.6160365,5.39472631 28.9411133,5.08505426 L29.1466203,5.08505426 C29.2011953,4.88599409 29.2561829,4.68590306 29.3064248,4.50240897 C29.6876239,4.45983422 30.0467455,4.41983663 30.4296985,4.3770557 C30.3461338,4.0885164 30.0585065,4.08305281 29.9135579,3.88904389 C29.9466743,3.55628044 30.1483642,3.27866831 30.318898,2.99507716 C30.420723,2.82570593 30.5543232,2.68056004 30.538023,2.4598517 C30.7564259,2.24821497 30.9778205,2.03358874 31.2331569,1.78628406 C31.6661455,1.78628406 32.1466937,1.75937847 32.6223931,1.79556185 C32.9560326,1.82081806 33.2923544,1.88050518 33.6114475,2.01503316 C33.8893773,2.13224259 34.1842263,2.20955751 34.4725758,2.30130456 C35.0270942,2.47789185 35.446568,2.81127381 35.7137685,3.33856161 C35.6618759,3.5006137 35.6131814,3.65297565 35.554583,3.83564504 C35.1643053,4.23644562 34.7119214,4.60786653 34.1780363,4.88537557 C33.8523406,5.05443755 33.5390248,5.24545696 33.1922832,5.37060405 C33.1470964,5.38689173 33.0724041,5.38111888 33.0570323,5.40988003 C32.9089888,5.68707982 32.595054,5.73810767 32.3615889,5.86088377 C32.0399166,6.03004883 31.7978887,6.2628183 31.5251173,6.51898843 L30.7026763,6.51898843 C30.6359277,6.58578852 30.5871301,6.6343423 30.5036686,6.71773933 C30.7334198,6.72773873 30.9306736,6.73650109 31.1989057,6.74825295 C30.4698301,7.42274837 29.8508329,8.11992284 29.4164,8.95842898 C29.5484527,9.02636303 29.7108363,9.07543224 29.8276205,9.17697251 C30.1176207,9.42943152 30.4775676,9.45138896 30.8241029,9.51272546 C30.9907163,9.54220822 31.1682654,9.50416928 31.3385928,9.52035387 C31.8621613,9.57014468 32.2925707,9.3459314 32.6944031,9.0581137 C32.9377722,8.8838974 33.1608175,8.6796829 33.3825217,8.47753014 C33.870601,8.03240234 34.3490859,7.57665662 34.838919,7.13348746 C34.9315623,7.04957499 35.0581472,6.95401374 35.1703921,6.95226127 C35.3436081,6.94947794 35.2304348,6.65145467 35.4368704,6.73443935 C35.9833418,6.4585797 36.4428441,6.04283156 37.0003543,5.77965156 C37.218654,5.67656499 37.3907352,5.47430914 37.5814895,5.31442187 C37.8349689,5.10196045 38.0749335,4.8713558 38.341515,4.6771407 C38.6012875,4.48787376 38.8871611,4.33468712 39.1604483,4.16644984 C39.6601855,4.11830842 40.1408368,4.16098626 40.5775394,4.46323607 C40.9803003,4.74198216 41.4433102,4.94660899 41.6797672,5.50090547 C41.7239223,5.70388293 41.6376753,5.93139498 41.4874653,6.16797866 C41.3515954,6.38198638 41.3189949,6.66743308 41.011766,6.73443935 C40.5360666,7.27708705 39.8535189,7.49985713 39.2613449,7.86210333 C38.8649803,8.10456294 38.4428242,8.28857246 37.993329,8.41155474 C37.8142325,8.46052086 37.7384053,8.65298348 37.5725141,8.74040089 C37.4310732,8.81482939 37.2563096,8.78575898 37.1331292,8.94234748 C37.0162419,9.0911014 36.7485256,8.98265433 36.6092512,9.21470219 C36.5193934,9.36417772 36.2737547,9.42066916 36.0974436,9.51767362 C35.5438537,9.82188208 35.0137858,10.1621708 34.5125012,10.5465807 C34.3160727,10.696984 34.1190252,10.8464595 33.8988686,11.0142844 C34.1521416,11.3593152 34.3172075,11.7340348 34.6759164,11.9457747 C34.8670834,12.0588606 34.8507832,12.3235869 35.0903351,12.4166741 C35.2799546,12.490381 35.4580195,12.6482065 35.5065076,12.8840686 C35.9745727,13.0436466 36.0912536,13.5545436 36.4780238,13.8399904 C36.5235201,13.7945292 36.576238,13.7400995 36.6308129,13.6876284 C36.799696,13.5257825 37.0981558,13.6083548 37.2275263,13.3933163 C37.3487466,13.191782 37.5514682,13.119106 37.7253032,12.9949898 C37.8631333,12.8966452 37.9538164,12.7347993 38.0765842,12.6121262 C38.1947095,12.4936798 38.4047559,12.4080148 38.4368406,12.2749301 C38.5023511,12.0030908 38.7938988,11.9817519 38.8973745,11.7505287 C38.9953824,11.5314697 39.2082143,11.3659127 39.3564641,11.1663371 C39.5206016,10.9453195 39.6744224,10.7158488 39.8224659,10.4835948 C40.2724769,9.7772456 40.6950457,9.0519285 41.1756971,8.3673306 C41.3704749,8.08982156 41.5835131,7.81416807 41.7694186,7.53294791 C41.9770922,7.21853388 42.2428483,6.97236315 42.4861142,6.69825597 C42.5825746,6.58960272 42.6533467,6.45796118 42.7513546,6.31374307 C42.841006,6.33394803 42.9383949,6.34023632 43.0217532,6.37765674 C43.253774,6.48198035 43.4813586,6.5913552 43.7231802,6.678051 C43.9123871,6.74588196 44.0475348,6.96710574 44.2368448,7.03132867 C44.4738176,7.11173619 44.6255751,7.27100494 44.7978626,7.42367615 C44.971285,7.57727514 45.166166,7.70695804 45.3353586,7.86468049 C45.7605065,8.26094526 46.0908447,8.73431878 46.4371737,9.19862069 C46.6913752,9.53942489 46.851386,9.93032915 47.108373,10.2676284 C47.2462031,10.4488546 47.2880886,10.6650271 47.1639796,10.9424331 C46.8620121,11.6173408 46.4309837,12.2160676 46.1088988,12.8759248 C45.7395638,13.1308578 45.6413496,13.5991801 45.310186,13.8877194 C45.2025837,13.9814251 45.1387238,14.1242 45.050723,14.2414095 C44.9615874,14.3600621 44.8721423,14.4792302 44.7731027,14.5893266 C44.7363756,14.6300458 44.6566281,14.6333446 44.6224801,14.6749916 C44.4320353,14.9072456 44.1382179,15.0479588 44.0312345,15.3572185 C44.0059588,15.4302038 43.9255923,15.5037045 43.8523443,15.5372076 C43.5328386,15.6835905 43.3349658,15.9653261 43.0968582,16.1995388 C42.654791,16.6341518 42.1860037,17.0329937 41.6910123,17.4079196 C41.3897669,17.6360502 41.1536195,17.9498457 40.7855225,18.092002 C40.7012357,18.4021895 40.3941099,18.4423933 40.1814843,18.600425 C39.9555503,18.768353 39.75613,18.9718459 39.4937784,19.2054401 C39.5242124,19.4907837 39.5608364,19.8347836 39.5914768,20.122292 C39.8071973,20.3857813 39.9859843,20.6042217 40.1759133,20.8361665 C40.4195919,20.7549343 40.557422,20.4928882 40.8275111,20.4081511 C41.1075042,20.3203213 41.312805,20.0697179 41.5578247,19.9251905 C42.0400236,19.6409808 42.4528947,19.2381185 43.0035959,19.0647269 C43.2138487,18.9985453 43.4085233,18.880305 43.6056739,18.7770123 C43.824799,18.6622769 44.048257,18.5826941 44.3017363,18.5856836 C44.4458595,18.5874361 44.612473,18.6495973 44.7264716,18.4889884 C44.7380262,18.4727007 44.7930138,18.4810508 44.8261302,18.487236 C45.2088768,18.5585719 45.6206131,18.5673342 45.9650851,18.7236135 C46.2720046,18.8628834 46.5380702,19.1382276 46.7585364,19.4060465 C46.9165871,19.5981999 47.1192055,19.7676742 47.2339263,19.9788986 C47.4948337,20.4595913 47.7933967,20.9157493 48.0817462,21.3778864 C48.3397649,21.7913667 48.6254321,22.1898993 48.92513,22.5745153 C49.2846642,23.036137 49.6425478,23.498171 49.864252,24.042468 C49.9841311,24.3366771 50.0767743,24.6478955 50.1338253,24.9601447 C50.2179057,25.4205293 50.007653,25.8292675 49.779243,26.1987298 C49.6337786,26.4341795 49.4623164,26.6868447 49.1665389,26.8075591 C48.6342013,26.6699385 48.3796902,26.2107909 48.1138309,25.7818477 C47.8706681,25.3897064 47.6995154,24.9524132 47.4492342,24.5656324 C47.276534,24.2985351 47.0231577,24.0834965 46.84272,23.8856734 C46.5845982,23.8266048 46.3790911,23.7795973 46.1587281,23.729188 C46.0765046,23.856603 45.997273,23.9791729 45.8905991,24.1442145 C45.9279453,24.4145075 45.9871627,24.7232517 46.0088276,25.0347794 C46.030183,25.3422866 46.0134701,25.6524741 46.0134701,25.9161695 C45.9242313,26.0954371 45.8533561,26.2376965 45.77072,26.4038721 C46.1804962,26.9988878 46.5588066,27.6052429 47.0027308,28.159024 C47.1438622,28.3350959 47.3246094,28.5071473 47.4887468,28.6780649 C48.0375911,29.2498861 48.5714762,29.8361394 49.1237249,30.4303304 C48.8252651,31.0830745 48.2176161,31.4046015 47.6751682,31.7904545 C47.4764701,31.6672661 47.2859221,31.5489227 47.0852638,31.4243941 C47.0313079,31.3523366 46.9739475,31.2522396 46.8949221,31.1737907 C46.3626877,30.6441319 45.8472693,30.1040614 45.4673082,29.4457505 C45.3677528,29.2732867 45.1879341,29.1442223 45.0352481,29.0060863 C44.8711106,28.8577448 44.8383038,28.579411 44.5688337,28.5369394 C44.481555,28.3140662 44.2511849,28.2363389 44.1216081,28.0987184 C43.9615973,28.2511834 43.8010707,28.4039577 43.6405441,28.556732 C43.6061898,28.7485761 43.5298468,28.9440282 43.5454249,29.1317489 C43.5906117,29.6726441 43.7825008,30.1641608 44.1395591,30.5844448 C44.2452013,30.7088703 44.3556923,30.8361822 44.4284244,30.980091 C44.5873004,31.2942989 44.8692536,31.5098529 45.0543338,31.8024126 C45.3796169,32.3166084 45.7792828,32.781735 45.9454835,33.3948939 C45.9909798,33.5626157 45.9816949,33.7202351 46.0166682,33.8758958 C45.7810366,34.1504154 45.6366039,34.5098782 45.2663404,34.6425506 C44.9517866,34.7552243 44.6331062,34.8562491 44.3110213,34.9641807 C44.154415,34.906143 44.0616686,34.7690379 43.9572644,34.6335821 C43.7872465,34.413183 43.6654072,34.1656722 43.4477265,33.966612 C43.2471714,33.7831179 43.1991991,33.4409736 43.0125714,33.2325326 C42.7032791,32.8868833 42.5889709,32.4264987 42.2622436,32.0909519 C42.0906782,31.9146739 41.9847265,31.66005 41.8946624,31.4235694 C41.8246125,31.2398692 41.6219941,31.1950265 41.5571025,31.0043164 C41.5012896,30.8405118 41.3598487,30.7056746 41.2499767,30.5492923 C40.7095921,30.521562 40.3584144,30.9044255 39.9054115,31.1186394 C40.0888411,31.6960272 40.2414239,32.2760954 40.6420183,32.7706016 C40.9875219,33.1972769 41.2795854,33.6694134 41.5732996,34.1351585 C41.7681806,34.4442121 42.0189776,34.729968 42.0045344,35.2910682 C41.826779,35.732588 41.2140749,35.8941247 40.6699763,36.2186412 C40.4807695,36.0519502 40.2414239,35.8942278 40.0787308,35.678983 C39.9716442,35.5370328 39.8455751,35.4081746 39.7356,35.2706571 C39.6111815,35.1152026 39.5073963,34.9540782 39.4086662,34.7840885 C39.3112773,34.6165728 39.1926362,34.4615306 39.0898827,34.2970045 C38.9880576,34.1339215 38.8888117,33.9688799 38.7981286,33.7994056 C38.3973279,33.0507909 38.0065343,32.2964034 37.5144315,31.5875802 L36.7948472,31.5875802 C36.5642707,31.3857367 36.3650568,31.1534826 36.0513283,31.0349331 C35.8048643,30.941949 35.6152448,30.9296817 35.4035477,31.0626634 C35.253544,31.1568845 35.0867243,31.231313 34.9558064,31.3466669 C34.6843761,31.5859308 34.5956531,31.9290029 34.6883995,32.2474373 C34.7492676,32.4564969 34.7544259,32.6925651 34.886685,32.8851308 C35.0047071,33.0571823 35.1035404,33.2423258 35.2173327,33.4174699 C35.6204031,34.0379479 36.0378136,34.6503852 36.1129186,35.4186894 C36.121894,35.5100241 36.1902932,35.5942458 36.2090695,35.6863021 C36.2259887,35.7687714 36.2126803,35.8573228 36.2126803,35.9140204 C35.9940711,36.3640963 35.5458139,36.4117223 35.1696699,36.5066651 C34.8625441,36.5841862 34.5250874,36.4230619 34.2854323,36.1895708 C34.0492849,35.9591723 33.790544,35.7208361 33.6470398,35.4335339 C33.4183204,34.975211 33.1278043,34.552453 32.9144566,34.0886665 C32.8065447,33.8542476 32.7834355,33.5756047 32.5367651,33.4203563 C32.5102514,33.0730576 32.2219018,32.866266 32.0783976,32.5800977 C31.9418056,32.3073306 31.7368143,32.0693037 31.5722642,31.8093194 C31.4701297,31.648092 31.3293078,31.5279961 31.2423387,31.3375952 C31.06871,30.9578243 30.945839,30.5845479 30.9513068,30.1687997 C30.9560525,29.8194394 30.9240709,29.4711098 31.0494179,29.1275223 C31.1750743,28.7833163 31.2783437,28.4348837 31.4708518,28.1158307 C31.9010549,27.4029871 32.416267,26.7608609 33.003489,26.1725458 C33.1056236,26.0701809 33.1634998,25.9237979 33.2649122,25.8205052 C33.3540478,25.729789 33.4887829,25.6844309 33.5803945,25.5953641 C33.7628955,25.417849 33.882981,25.1908524 34.1175809,25.0475621 C34.3295875,24.9180854 34.4491571,24.6672757 34.6596162,24.5106872 C34.8000254,24.4061575 34.9682895,24.2946178 34.992843,24.0863829 C35.1714237,24.0526736 35.2758279,23.9155685 35.3862158,23.793514 C35.5874931,23.570847 35.6418616,23.3210682 35.5481867,23.0233542 C35.3477348,22.3861762 34.995319,21.850126 34.4920743,21.3526302 C34.1985664,21.4599433 33.8485234,21.5189088 33.5873066,21.7034338 C33.3322797,21.883526 33.0554848,22.007333 32.789935,22.1563962 C32.5912369,22.2678328 32.3705643,22.33721 32.220767,22.5250338 C32.1036734,22.6719321 31.8388457,22.5601863 31.7600267,22.7808946 C31.2869065,23.080258 30.7698375,23.2999355 30.2613312,23.5205408 C29.9604986,23.6509453 29.6722522,23.8373258 29.3261295,23.8823746 C29.0740945,23.9152592 28.8238133,23.9996871 28.5775555,24.066178 C28.0742076,24.2023553 27.571685,24.1436991 27.0693687,24.1497812 C26.8435379,24.1525645 26.6171912,24.0619514 26.3901224,24.0577249 C25.6695065,24.0443236 25.0309076,24.2444146 24.572437,24.8127309 C24.6051407,24.8840668 24.649399,24.940249 24.6552795,25.0002454 C24.6956174,25.4212509 24.8005375,25.825041 24.9161868,26.2316144 C24.9996483,26.5247926 25.0947675,26.8286918 25.0707298,27.1455799 L25.0707298,27.6696721 C24.834995,27.6379214 24.6632233,27.6748264 24.6595093,27.9285224 C24.6588903,27.9746021 24.6768412,28.0209911 24.6867452,28.069751 C24.7631913,27.9890342 24.8305588,27.9178014 24.8786343,27.8671859 L25.2770622,27.8671859 L25.2770622,27.8671859 Z" id="Fill-1"></path>
                    </g>
                    <g id="tipografía" transform="translate(51.300000, 0.000000)">
                        <path d="M80.4822753,23.0005651 C80.5017704,23.2973945 80.5170191,23.5303835 80.5367072,23.8289488 C80.8551912,23.5598928 80.9924289,23.3421408 80.8069361,23.0426111 C80.7455555,23.0347034 80.6859121,23.0269885 80.4822753,23.0005651 L80.4822753,23.0005651 Z M83.3569319,8.1940018 L82.7817303,8.1940018 C82.7817303,8.1940018 83.0013878,26.0573878 83.0000367,34.2540469 C82.9998437,34.2816276 82.9786114,34.3088225 82.9415514,34.3985078 C82.7869419,34.2673551 82.6439136,34.1454602 82.4559115,33.9859553 L82.4559115,34.5612915 C82.5663193,34.5718994 82.7153312,34.5863648 82.9077728,34.6050733 C83.1108305,35.0463636 84.2923099,37.2339138 84.2923099,37.2339138 L78.9300033,37.2339138 C78.9300033,37.2339138 80.3095219,34.3283025 80.3083637,33.5051263 C80.2940802,23.8619298 80.2990988,14.2189262 80.2990988,4.57572975 L80.2990988,3.70317843 C79.9875634,3.13362847 79.1977229,1.65005978 78.9909978,1.45043763 L84.2948192,1.45043763 C84.4251081,2.08633544 89.9980003,23.5922953 89.9980003,23.5922953 L90.4707078,23.5922953 C90.4707078,23.5922953 90.1257799,9.05960975 90.1580144,4.5917381 C90.1645771,3.70838597 88.8236626,1.42227837 88.8236626,1.42227837 C88.8236626,1.42227837 92.4815969,1.41764945 94.2384709,1.41764945 C93.9373587,1.91622265 93.0290035,3.69951387 93.0295826,4.24437627 C93.0415498,14.9159644 93.0145269,37.2339138 93.0145269,37.2339138 L91.7699298,37.2339138 L83.3569319,8.1940018 L83.3569319,8.1940018 Z" id="Fill-4" fill="#4F4F4C"></path>
                        <path d="M71.8363015,20.545309 C71.8418991,20.6022062 71.8474967,20.6591033 71.8530943,20.7160005 C72.0216013,20.6916986 72.1903013,20.6673968 72.3590014,20.643095 C72.355527,20.6104997 72.3520526,20.5779044 72.3487713,20.545309 L71.8363015,20.545309 L71.8363015,20.545309 Z M68.1387979,6.48245883 L67.5359945,6.48245883 C67.5643685,6.62151929 67.5819334,6.70773291 67.606061,6.82712046 C67.8013978,6.80995488 67.9729932,6.79510377 68.1387979,6.78083127 L68.1387979,6.48245883 L68.1387979,6.48245883 Z M70.6480664,24.0956903 C70.6480664,23.9317494 68.8356025,8.57993797 68.8356025,8.57993797 L68.2945656,8.57993797 L66.1697943,23.681402 C66.1697943,23.681402 65.7883855,23.9531581 65.7609766,23.9726382 C65.82062,24.1523945 65.8735076,24.3118994 65.9248511,24.4660038 C66.1352436,24.3240503 66.2302098,24.2602098 66.3244039,24.1961764 C66.5770679,24.3676393 66.8299249,24.5391022 67.148409,24.7551184 C67.7998537,24.7551184 68.5470366,24.827831 69.270671,24.7285021 C69.718865,24.6667832 70.1313501,24.3437232 70.6480664,24.0956903 L70.6480664,24.0956903 Z M71.018859,18.5490875 C71.3236386,18.5832258 71.6131696,18.5832258 71.9117725,18.5832258 C72.0046155,18.3041405 72.1430113,18.0271769 72.1804573,17.7376765 C72.2219567,17.4146165 72.420382,17.2346673 72.6765204,16.7906767 C72.7981234,17.5179957 73.0996216,19.5402549 73.1698811,20.0731593 C72.96277,20.195247 72.7809445,20.3022908 72.5195946,20.4563952 C72.7508333,20.489762 73.0863032,20.5383657 73.0863032,20.5383657 L74.9215435,34.4690988 L76.4653226,37.2339138 L70.551556,37.2339138 L72.0837539,34.4710275 L71.0341077,26.6944428 C71.0341077,26.6944428 70.5824393,26.7455538 70.2857666,26.7791135 C70.2651134,26.7592477 70.1570218,26.6568328 70.0361909,26.5422671 C70.0894646,26.4448669 70.1133992,26.3430307 70.177675,26.2934627 C70.4633456,26.0728175 70.7605974,25.8672163 71.0885395,25.6311414 C70.3421286,25.4689364 69.6671354,25.3217753 68.9842284,25.1728784 C68.6802209,25.6853384 68.5655666,26.3580747 67.849653,26.7669626 C67.7965723,26.5752481 67.7404033,26.3735044 67.6491046,26.0442725 C67.2518681,26.5387954 67.0542149,26.7848996 66.7971114,27.1050665 C66.4886644,26.9613772 66.120381,26.7895285 65.7073168,26.5970426 C65.4075558,28.0067415 64.5156074,33.2777307 64.344398,34.7283183 C64.7429857,35.4521656 65.2155002,36.3106373 65.7322165,37.2495364 L60.6034649,37.2495364 C60.6034649,37.2495364 61.7117894,35.4618092 62.1053585,34.492822 C62.1592113,34.0816197 66.9716021,3.15349425 66.9716021,3.15349425 L66.1242414,1.43577938 L72.0354988,1.43577938 C72.0354988,1.43577938 71.4101119,2.54691293 71.0250357,3.17278141 L71.0250357,4.46637153 C70.8679169,4.1733995 70.803641,4.05381908 70.7160096,3.89084254 C70.1689891,4.05536206 70.093518,4.59424543 69.9462433,4.96455899 C69.7821757,5.37730431 69.7207952,5.71560117 69.1834257,5.69072073 C69.0967594,5.68647755 69.0021793,5.85909768 68.9108805,5.94994022 L68.9108805,6.4323122 C69.0801596,6.99376156 68.4182918,7.34228062 68.5368065,7.89042184 C68.9392546,8.13421159 69.3602326,8.27172908 69.8427842,8.12109632 C69.9333109,8.00518046 70.0244167,7.88849312 70.1267176,7.7573404 C69.8045661,7.46803293 69.5237211,7.2159497 69.2969218,7.01227724 L69.2969218,6.4323122 C69.5906993,6.15612001 69.8840906,5.87973494 70.2348092,5.54973156 L70.2348092,4.99657568 C70.4287949,4.89686104 70.588423,4.81489059 70.775267,4.71864764 C70.897256,4.85577938 71.0439517,5.02049177 71.1972101,5.19272614 C71.2701719,6.06855628 72.5489337,15.6401974 72.6383023,15.9916095 C72.0920538,16.1098398 71.6519668,16.2301917 71.588849,16.8921272 C71.551403,17.2842353 71.2576256,17.6477983 71.1091927,18.0354703 C71.0451098,18.2032687 71.0566911,18.3998049 71.018859,18.5490875 C70.4562038,19.3296391 70.9196464,20.111155 70.943774,20.8830273 C71.075028,20.5090492 71.2085983,20.1283206 71.2111076,19.7468204 C71.2136169,19.3604985 71.0869953,18.9732123 71.018859,18.5490875 L71.018859,18.5490875 Z" id="Fill-5" fill="#50504D"></path>
                        <path d="M35.8871709,13.0447237 C35.6690576,13.2134864 35.5710031,13.2892849 35.4343445,13.3951714 C35.6030445,13.5548692 35.7132593,13.6592127 35.8871709,13.8237322 L35.8871709,13.0447237 L35.8871709,13.0447237 Z M35.4190959,5.00718362 C35.3110043,5.22416422 35.1789782,5.39427701 35.1407601,5.5834841 C35.0456009,6.05331942 34.9085562,6.50541056 34.7580001,6.96097338 C34.5281125,7.65550417 34.3758192,8.37587977 34.1565478,9.21641439 C34.6744222,8.96066659 35.0899956,8.75525829 35.5619311,8.52226934 C35.5001645,8.1021949 35.4436095,7.71895894 35.3718058,7.23330814 C35.7416334,6.89308256 36.1927226,6.47821566 36.6615698,6.04676179 L36.6615698,5.63536657 C36.0703475,5.87491315 35.9456562,5.26948906 35.4190959,5.00718362 L35.4190959,5.00718362 Z M37.2554943,34.5730566 L40.2573514,34.5730566 C40.5673426,33.6117843 43.5315607,24.2316648 43.6259478,23.8846887 C43.7460066,23.4443627 43.7541135,23.4486059 44.375833,23.459021 L44.375833,37.2555155 L32.644424,37.2555155 L33.7824738,34.775379 L33.7824738,30.0365227 C33.9278183,29.9830972 34.0391912,29.9422084 34.2420559,29.8673742 C34.0617747,29.8077769 33.962176,29.774603 33.8525403,29.7381502 C33.8330452,29.6980329 33.784404,29.5909892 33.784404,29.5909892 C33.784404,29.5909892 33.7706995,12.9425017 33.7963713,4.61835439 C33.7992666,3.73596661 32.541351,1.43577938 32.541351,1.43577938 L38.4344644,1.43577938 C38.4344644,1.43577938 37.6911419,2.95715091 37.2554943,3.74213851 L37.2554943,34.5730566 L37.2554943,34.5730566 Z" id="Fill-6" fill="#4F4F4C"></path>
                        <path d="M1.46078026,3.53306564 C1.27548044,3.23430747 0.7151415,1.86163997 0.523858038,1.45699526 L6.24055056,1.45699526 C5.92805014,1.95498985 5.11948664,3.83760997 5.22140154,4.33656891 C5.44704268,5.44095195 7.61871799,16.522778 7.61871799,16.522778 L8.04857497,16.5179562 L9.46997902,10.2932168 L10.7674638,10.2932168 C10.7894682,10.1763366 10.8060679,10.08858 10.8224747,10.0019806 C10.4362404,9.89647981 9.68905746,9.69280735 9.68905746,9.69280735 L10.4277475,6.33394767 C10.4277475,6.33394767 10.657249,6.10462328 10.7921705,5.96961313 C10.8079982,5.68763478 10.825177,5.38309046 10.8423558,5.07854613 C10.8867506,5.07893187 10.9311453,5.07931762 10.9755401,5.07970336 L10.9755401,6.46452177 C11.4148551,6.135097 11.769048,5.86951275 12.1398406,5.59158471 C12.0844437,5.34374464 12.0468047,5.08105346 11.9643849,4.83340627 C11.8794558,4.5788157 11.4721822,4.49048049 11.5611647,4.20792353 C11.9445037,3.60847846 12.2842201,3.0769242 12.6658219,2.47979359 C12.058965,2.3858651 11.5623228,2.30890932 10.9952282,2.22115272 L10.9952282,3.00787616 L10.1503768,1.43577938 L14.9436586,1.43577938 C14.9436586,1.43577938 14.2918278,3.04934356 13.7907462,3.79228513 C13.489827,4.23839725 8.88145907,21.3596131 8.88145907,21.616711 L8.88145907,34.7146244 C9.38543598,35.5736747 10.3551717,37.2267776 10.3551717,37.2267776 L4.23969853,37.2339138 L5.60010805,34.882037 C5.60010805,34.882037 5.59335233,26.008977 5.60763586,21.5733149 C5.60995211,20.9144654 1.68950973,3.90164336 1.46078026,3.53306564" id="Fill-7" fill="#4F4F4C"></path>
                        <path d="M59.8373659,1.09381796 L59.0095004,1.09381796 L58.1109892,3.29294045 C58.1109892,3.29294045 56.6805132,2.1634841 56.5322734,2.0512328 C55.7239029,1.45911685 54.8082129,1.01512633 53.9459897,1.01512633 C47.2107272,1.01512633 46.9414634,12.4560794 46.9414634,18.5215069 C46.9414634,26.7569332 47.6419354,38 53.9459897,38 C55.8825659,38 57.2256035,37.2260061 58.1374331,35.8139928 C58.1382052,35.8128356 58.1389772,35.8116783 58.1399423,35.810714 C58.7303925,35.0525355 59.1268569,33.8044631 59.3914882,32.3885924 C59.5887553,31.3902887 59.716921,30.274912 59.7904619,29.0551917 C59.987536,26.1702177 59.8620726,23.5568069 59.8620726,23.5568069 L57.2333244,23.5568069 C57.7454081,27.3569569 57.8511835,31.8057343 56.4195493,34.6434548 C55.9906574,35.4957546 55.2925017,35.5345218 54.9697712,35.5345218 C52.5450458,35.5345218 50.5878165,33.3647158 50.5878165,18.570882 C50.5878165,8.16584254 51.7909142,3.4809903 54.1615938,3.4809903 C56.6938317,3.4809903 58.005407,6.85026506 58.3696369,12.4869389 L59.8732678,12.4869389 L59.8373659,1.09381796" id="Fill-14" fill="#50504D"></path>
                        <path d="M25.6665346,30.1468453 C25.2322381,34.0941563 24.3485896,35.7599887 22.6274245,35.7599887 C19.9318912,35.7599887 19.303802,30.9125457 19.303802,18.48679 C19.303802,7.87711369 19.8110602,2.9606226 22.641708,2.9606226 C25.9396588,2.9606226 26.0508387,7.98936499 26.0508387,18.5988484 C26.0508387,23.4848658 25.9701561,27.181058 25.6958737,29.8687243 L26.6654165,29.748951 C26.5689061,30.147231 25.9894581,30.1674825 25.6665346,30.1468453 L25.6665346,30.1468453 Z M16.7972358,26.3501669 L16.8306284,25.9374216 L17.5040774,26.2006914 L16.7972358,26.3501669 L16.7972358,26.3501669 Z M20.4462912,2.41498872 L21.1218634,2.84894992 L20.4462912,2.84894992 L20.4462912,2.41498872 L20.4462912,2.41498872 Z M22.6023318,1.39045455 C16.5609786,1.39045455 15.9062525,11.4743627 15.9062525,18.3562159 C15.9062525,21.0317313 15.9637727,23.7782236 16.2015741,26.3191146 L16.2801335,26.2938484 L16.6827746,26.3501669 L16.2322644,26.6329168 C16.8227146,32.5251455 18.4242069,37.2339138 22.6023318,37.2339138 C28.6942565,37.2339138 29.3485965,27.3889736 29.3485965,18.3562159 C29.3485965,11.4743627 28.6942565,1.39045455 22.6023318,1.39045455 L22.6023318,1.39045455 Z" id="Fill-15" fill="#4F4F4C"></path>
                    </g>
                </g>
            </g>
        </g>
    </g>
</svg>